<svg xmlns="http://www.w3.org/2000/svg" xmlns:xlink="http://www.w3.org/1999/xlink" version="1.1" x="0px" y="0px" viewBox="0 0 100 125" style="enable-background:new 0 0 100 100;" xml:space="preserve"><path d="M50,10c-22.0561523,0-40,17.9438477-40,40s17.9438477,40,40,40s40-17.9438477,40-40S72.0561523,10,50,10z M50,88  c-20.953125,0-38-17.046875-38-38s17.046875-38,38-38s38,17.046875,38,38S70.953125,88,50,88z"/><path d="M68.9545898,55.5654297c-0.5385742-0.1396484-1.0800781,0.1860352-1.2163086,0.7211914  c-1.3995972,5.4815674-5.1935425,9.8370361-10.0913086,12.0880737v-5.1935425c0-4.2163086-3.4301758-7.6469727-7.6469727-7.6469727  s-7.6469727,3.4306641-7.6469727,7.6469727V68.37854c-4.8884888-2.2440186-8.6820068-6.5839233-10.0917969-12.0455322  c-0.1376953-0.5341797-0.6796875-0.8554688-1.2182617-0.7182617c-0.534668,0.1381836-0.8564453,0.6835938-0.7182617,1.2182617  c2.3134766,8.9619141,10.4018555,15.2211914,19.6689453,15.2211914c9.2924805,0,17.3862305-6.2802734,19.6821289-15.2724609  C69.8125,56.246582,69.4897461,55.7016602,68.9545898,55.5654297z M44.3530273,69.1552124v-5.9740601  c0-3.1137695,2.5332031-5.6469727,5.6469727-5.6469727s5.6469727,2.5332031,5.6469727,5.6469727v5.9711304  c-1.7910156,0.5802612-3.6903076,0.9019165-5.6533203,0.9019165C48.0358276,70.0541992,46.1408081,69.7335815,44.3530273,69.1552124  z"/><path d="M35.0019531,32.6220703c3.4208984,0,6.2041016,2.7832031,6.2041016,6.2041016c0,0.5522461,0.4477539,1,1,1s1-0.4477539,1-1  c0-4.5239258-3.6801758-8.2041016-8.2041016-8.2041016s-8.2041016,3.6801758-8.2041016,8.2041016c0,0.5522461,0.4477539,1,1,1  s1-0.4477539,1-1C28.7978516,35.4052734,31.5810547,32.6220703,35.0019531,32.6220703z"/><path d="M64.9980469,30.6220703c-4.5239258,0-8.2041016,3.6801758-8.2041016,8.2041016c0,0.5522461,0.4477539,1,1,1s1-0.4477539,1-1  c0-3.4208984,2.7832031-6.2041016,6.2041016-6.2041016s6.2041016,2.7832031,6.2041016,6.2041016c0,0.5522461,0.4477539,1,1,1  s1-0.4477539,1-1C73.2021484,34.3022461,69.5219727,30.6220703,64.9980469,30.6220703z"/><!--<text x="0" y="115" fill="#000000" font-size="5px" font-weight="bold" font-family="'Helvetica Neue', Helvetica, Arial-Unicode, Arial, Sans-serif">Created by Made by Made</text><text x="0" y="120" fill="#000000" font-size="5px" font-weight="bold" font-family="'Helvetica Neue', Helvetica, Arial-Unicode, Arial, Sans-serif">from the Noun Project</text>--></svg>