<svg xmlns="http://www.w3.org/2000/svg" xmlns:xlink="http://www.w3.org/1999/xlink" version="1.1" x="0px" y="0px" viewBox="0 0 100 125" enable-background="new 0 0 100 100" xml:space="preserve"><path d="M74.381,20.718c-5.584,0-10.127,4.544-10.127,10.128c0,5.585,4.543,10.128,10.127,10.128  c5.585,0,10.129-4.543,10.129-10.128C84.51,25.262,79.966,20.718,74.381,20.718z"/><rect x="73.381" y="9.096" width="2" height="4.806"/><rect x="73.381" y="47.791" width="2" height="4.805"/><rect x="85.66" y="16.165" transform="matrix(0.7072 -0.707 0.707 0.7072 13.6485 67.2863)" width="4.805" height="2"/><rect x="58.298" y="43.526" transform="matrix(-0.7069 0.7073 -0.7073 -0.7069 135.1033 33.0684)" width="4.805" height="2"/><rect x="58.298" y="16.165" transform="matrix(0.707 0.7072 -0.7072 0.707 29.9238 -37.8986)" width="4.804" height="2"/><rect x="85.659" y="43.526" transform="matrix(-0.7071 -0.7071 0.7071 -0.7071 118.8472 138.2809)" width="4.806" height="2"/><rect x="52.632" y="29.846" width="4.805" height="2"/><rect x="91.326" y="29.846" width="4.805" height="2"/><path d="M44.38,60.789c-1.345-8.255-8.57-14.518-17.562-15.396c3.106,2.997,5.638,9.102,6.569,16.537L44.38,60.789z"/><path d="M17.891,46.334C9.389,49.031,3.507,56.597,3.886,64.995l10.993-1.142C14.261,56.396,15.472,49.909,17.891,46.334z"/><path d="M16.867,63.646l14.532-1.509c-1.312-10.479-5.682-17.104-9.082-16.739C18.906,45.753,15.997,53.123,16.867,63.646z"/><polygon points="24.968,64.816 22.979,65.022 25.458,88.904 7.881,88.904 7.881,90.904 78.631,90.904 78.631,88.904 27.469,88.904   "/><text x="0" y="115" fill="#000000" font-size="5px" font-weight="bold" font-family="'Helvetica Neue', Helvetica, Arial-Unicode, Arial, Sans-serif">Created by Srinivas Agra</text><text x="0" y="120" fill="#000000" font-size="5px" font-weight="bold" font-family="'Helvetica Neue', Helvetica, Arial-Unicode, Arial, Sans-serif">from the Noun Project</text></svg>