<svg xmlns="http://www.w3.org/2000/svg" xmlns:xlink="http://www.w3.org/1999/xlink" version="1.1" x="0px" y="0px" viewBox="0 0 100 125" enable-background="new 0 0 100 100" xml:space="preserve"><path d="M63.276,46.335c4.902-3.912,8.058-9.925,8.058-16.67c0-11.763-9.57-21.333-21.334-21.333s-21.334,9.57-21.334,21.333  c0,6.745,3.155,12.758,8.058,16.67C23.031,50.354,13,63.022,13,77.998v10.67c0,1.657,1.343,3,3,3h68c1.657,0,3-1.343,3-3v-10.67  C87,63.022,76.97,50.354,63.276,46.335z M34.666,29.665c0-8.455,6.879-15.333,15.334-15.333s15.334,6.878,15.334,15.333  S58.455,44.999,50,44.999S34.666,38.12,34.666,29.665z M46,50.999h8c14.888,0,27,12.112,27,27v7.67H19v-7.67  C19,63.11,31.112,50.999,46,50.999z"/><text x="0" y="115" fill="#000000" font-size="5px" font-weight="bold" font-family="'Helvetica Neue', Helvetica, Arial-Unicode, Arial, Sans-serif">Created by Oh Rian</text><text x="0" y="120" fill="#000000" font-size="5px" font-weight="bold" font-family="'Helvetica Neue', Helvetica, Arial-Unicode, Arial, Sans-serif">from the Noun Project</text></svg>