<?xml version="1.0" encoding="UTF-8"?>
<svg width="700pt" height="700pt" version="1.1" viewBox="0 0 700 700" xmlns="http://www.w3.org/2000/svg">
 <path d="m557.39 215.77-14.438-34.293s33.598-75.777 30.602-78.703l-44.449-43.418c-3.0938-3.0078-78.91 31.598-78.91 31.598l-34.988-14.141s-30.887-76.809-35.137-76.809l-62.77-0.0039062c-4.3398 0-32.957 77-32.957 77l-34.906 14.141s-77.422-32.875-80.395-29.949l-44.402 43.5c-3.0703 2.9609 32.27 77.242 32.27 77.242l-14.438 34.25s-78.469 30.242-78.469 34.32l0.003907 61.512c0 4.3008 78.66 32.332 78.66 32.332l14.43 34.18s-33.578 75.738-30.66 78.656l44.473 43.527c3.0156 2.9648 78.867-31.664 78.867-31.664l35.008 14.184s30.887 76.77 35.164 76.77h62.762c4.3555 0 32.957-76.992 32.957-76.992l35.035-14.172s77.258 32.902 80.246 30.023l44.473-43.484c3.0781-3.0195-32.348-77.258-32.348-77.258l14.402-34.254s78.512-30.281 78.512-34.43v-61.469c0.015624-4.2539-78.602-32.195-78.598-32.199zm-115.68 64.18c0 49.469-41.156 89.773-91.703 89.773-50.516 0-91.711-40.305-91.711-89.773 0-49.445 41.195-89.668 91.711-89.668 50.574 0.023438 91.699 40.223 91.703 89.668z" fill-rule="evenodd"/>
</svg>
