<svg xmlns="http://www.w3.org/2000/svg" data-name="Layer 2" viewBox="0 0 32 40" x="0px" y="0px"><title>Extra-Icon</title><path d="M27.2,2.47H4.8A2.8,2.8,0,0,0,2,5.27v16.8a2.8,2.8,0,0,0,2.8,2.8h5.81A2.81,2.81,0,0,1,13,26.27l1.34,2.33a1.87,1.87,0,0,0,3.23,0L19,26.27a2.81,2.81,0,0,1,2.43-1.4H27.2a2.8,2.8,0,0,0,2.8-2.8V5.27A2.8,2.8,0,0,0,27.2,2.47Zm.93,19.6a.93.93,0,0,1-.93.93H21.39a4.68,4.68,0,0,0-4,2.34L16,27.67l-1.34-2.33a4.68,4.68,0,0,0-4-2.34H4.8a.93.93,0,0,1-.93-.93V5.27a.93.93,0,0,1,.93-.93H27.2a.93.93,0,0,1,.93.93Z"/><path d="M17,8h-3.9a.93.93,0,0,0,0,1.87H17a.93.93,0,0,1,.93.93v1.39a.93.93,0,0,1-.93.93H15a.93.93,0,0,0-.93.93v2.34a.93.93,0,1,0,1.87,0V15h1a2.8,2.8,0,0,0,2.8-2.8V10.82A2.8,2.8,0,0,0,17,8Z"/><path d="M15,18.33a1,1,0,0,0-.93,1,.93.93,0,0,0,1.87,0v-.09A.89.89,0,0,0,15,18.33Z"/><text x="0" y="47" fill="#000000" font-size="5px" font-weight="bold" font-family="'Helvetica Neue', Helvetica, Arial-Unicode, Arial, Sans-serif">Created by Wahyu Adam Pratama</text><text x="0" y="52" fill="#000000" font-size="5px" font-weight="bold" font-family="'Helvetica Neue', Helvetica, Arial-Unicode, Arial, Sans-serif">from the Noun Project</text></svg>