<svg xmlns="http://www.w3.org/2000/svg" xmlns:xlink="http://www.w3.org/1999/xlink" version="1.1" x="0px" y="0px" viewBox="0 0 100 125" enable-background="new 0 0 100 100" xml:space="preserve"><g><g><g><g><path d="M36.3,28.9l-11.9,0.9l13.5-16.1l23.5,1.1l-9.3,7.6c0.9,1,1.7,2.2,2.2,3.5c4.1,2.1,6.9,6.3,6.9,11.2      c0,3.3-1.2,6.2-3.3,8.5c-0.4,0.6-0.6,1.4-0.5,2c0.1,0.5,0.2,0.9,0.5,1.3c2.1,1.5,4,3.5,5.6,6c3.3,5.1,5.3,11.7,5.3,17.7      c0,2.9-1.2,5.3-3.1,7.3c-5.7,6-27.4,6.8-34.4,0c-2-2-3.1-4.4-3.1-7.3c0-6,2-12.6,5.3-17.7c1.6-2.5,3.5-4.5,5.6-6      c0.3-0.4,0.5-0.8,0.5-1.3c0.1-0.7-0.1-1.4-0.5-2c-2-2.2-3.3-5.2-3.3-8.5c0-1.8,0.4-3.4,1-5l-0.1,0C36.4,31.2,36.3,30,36.3,28.9z       M48.8,20l2.1-1.7l-11.1-0.5l-6.2,7.3l3.5-0.3c1-2.5,2.9-4.5,5.5-5.3C44.6,18.9,46.8,19.1,48.8,20z M40.4,30.1l2.9,0.2l3.5,0.3      l2.1-2.1l1.5-1.5c-0.4-1-1.1-1.9-1.8-2.5c-1.4-1.2-3.2-1.8-4.9-1.2c-1.8,0.6-3,2.2-3.4,4.3C40.2,28.4,40.2,29.3,40.4,30.1z       M63,77.2c1.2-1.2,1.9-2.6,1.9-4.4c0-14.2-9.5-22.9-16.3-22.9s-16.3,8.7-16.3,22.9c0,1.8,0.6,3.2,1.8,4.4      C39.1,81.9,58,81.9,63,77.2z M57.1,37.2c0-3-1.6-5.7-3.9-7.2l-5,4.8l-7.8-0.7c-0.4,1-0.6,2-0.6,3.1c0,1.9,0.6,3.6,1.6,5      c0.3,0.3,0.6,0.6,0.8,1c1.6,1.6,3.8,2.6,6.2,2.6c2.4,0,4.6-1,6.2-2.6c0.2-0.3,0.5-0.7,0.8-1C56.5,40.8,57.1,39.1,57.1,37.2z"/></g></g></g></g><!--<text x="0" y="115" fill="#000000" font-size="5px" font-weight="bold" font-family="'Helvetica Neue', Helvetica, Arial-Unicode, Arial, Sans-serif">Created by MRFA</text><text x="0" y="120" fill="#000000" font-size="5px" font-weight="bold" font-family="'Helvetica Neue', Helvetica, Arial-Unicode, Arial, Sans-serif">from the Noun Project</text>--></svg>