<svg xmlns="http://www.w3.org/2000/svg" xmlns:xlink="http://www.w3.org/1999/xlink" version="1.1" x="0px" y="0px" viewBox="0 0 65 81.25" enable-background="new 0 0 65 65" xml:space="preserve"><path d="M62.916,31.72H48.981l5.404-8.613c0.004-0.007,0.004-0.015,0.009-0.022c0.027-0.048,0.041-0.101,0.058-0.154  c0.013-0.041,0.032-0.08,0.038-0.122c0.007-0.05-0.002-0.098-0.005-0.148c-0.003-0.046,0-0.091-0.012-0.136  c-0.011-0.044-0.036-0.083-0.055-0.125c-0.022-0.048-0.04-0.096-0.071-0.139c-0.006-0.007-0.006-0.015-0.012-0.022L43.342,8.493  c-1.187-1.972-2.991-3.419-5.095-4.077c-2.156-0.674-4.364-0.441-6.215,0.653c-0.357,0.21-0.475,0.67-0.264,1.027l1.684,2.849  c-2.141,1.433-2.864,4.244-1.58,6.418c0.648,1.097,1.699,1.866,2.959,2.164c0.375,0.089,0.756,0.133,1.135,0.133  c0.792,0,1.574-0.202,2.295-0.576l1.679,2.841c0.14,0.237,0.39,0.369,0.646,0.369c0.13,0,0.261-0.034,0.381-0.104  c1.852-1.094,3.12-2.916,3.569-5.129c0.167-0.821,0.213-1.659,0.144-2.493l8.151,10.193L47.21,31.72H2.084  c-0.414,0-0.75,0.336-0.75,0.75s0.336,0.75,0.75,0.75h5.541v26.988c0,0.414,0.336,0.75,0.75,0.75s0.75-0.336,0.75-0.75V33.221h46.75  v26.988c0,0.414,0.336,0.75,0.75,0.75s0.75-0.336,0.75-0.75V33.221h5.541c0.414,0,0.75-0.336,0.75-0.75S63.33,31.72,62.916,31.72z   M35.177,16.068c-0.86-0.204-1.575-0.725-2.014-1.467c-0.865-1.464-0.381-3.357,1.051-4.365l3.279,5.55  C36.767,16.142,35.956,16.253,35.177,16.068z M43.066,14.761c-0.311,1.529-1.1,2.819-2.244,3.71L33.467,6.025  C34.8,5.453,36.311,5.384,37.8,5.848c1.773,0.554,3.298,1.788,4.295,3.475C43.092,11.01,43.437,12.941,43.066,14.761z"/><path d="M10.459,27.5c-0.414,0-0.75,0.336-0.75,0.75S10.045,29,10.459,29h18.914c2.965,0,5.377-2.038,5.377-4.542  s-2.412-4.542-5.377-4.542H10.459c-0.414,0-0.75,0.336-0.75,0.75s0.336,0.75,0.75,0.75c2.138,0,3.877,1.364,3.877,3.042  S12.597,27.5,10.459,27.5z M29.373,21.417c2.138,0,3.877,1.364,3.877,3.042S31.511,27.5,29.373,27.5H14.424  c0.869-0.807,1.413-1.868,1.413-3.042s-0.544-2.235-1.412-3.042H29.373z"/><!--<text x="0" y="80" fill="#000000" font-size="5px" font-weight="bold" font-family="'Helvetica Neue', Helvetica, Arial-Unicode, Arial, Sans-serif">Created by Adnen Kadri</text><text x="0" y="85" fill="#000000" font-size="5px" font-weight="bold" font-family="'Helvetica Neue', Helvetica, Arial-Unicode, Arial, Sans-serif">from the Noun Project</text>--></svg>