<svg xmlns="http://www.w3.org/2000/svg" xmlns:xlink="http://www.w3.org/1999/xlink" xml:space="preserve" version="1.1" style="shape-rendering:geometricPrecision;text-rendering:geometricPrecision;image-rendering:optimizeQuality;" viewBox="0 0 2.403 2.35875" x="0px" y="0px" fill-rule="evenodd" clip-rule="evenodd"><defs><style type="text/css">
   
    .fil0 {fill:black;fill-rule:nonzero}
   
  </style></defs><g><path class="fil0" d="M1.172 0.378l0 -0.125 0 -0.001 0 -0.153 0 -0.064c0,-0.005 0.002,-0.011 0.005,-0.015 0.008,-0.014 0.026,-0.018 0.04,-0.009 0.049,0.031 0.096,0.018 0.142,0.006 0.045,-0.013 0.09,-0.025 0.141,-0.01 0.014,0.002 0.024,0.014 0.024,0.028l0 0.217c-0.001,0.015 -0.012,0.028 -0.027,0.029 -0.004,0.001 -0.008,0 -0.011,-0.001 -0.037,-0.011 -0.074,0 -0.111,0.01 -0.046,0.013 -0.092,0.025 -0.144,0.008l0 0.08 0.163 0.132 0.84 0c0.011,0 0.022,0.006 0.026,0.016l0.139 0.291c0.002,0.005 0.004,0.01 0.004,0.015 0,0.016 -0.014,0.029 -0.03,0.029l-0.044 0 0 0.825c0.017,0.005 0.032,0.014 0.043,0.026l0.002 0.002c0.018,0.018 0.029,0.043 0.029,0.07l0 0.073c0,0.017 -0.014,0.03 -0.03,0.03l-2.344 0c-0.016,0 -0.029,-0.013 -0.029,-0.03l0 -0.073c0,-0.028 0.012,-0.054 0.03,-0.072 0.012,-0.012 0.027,-0.021 0.043,-0.026l0 -0.825 -0.044 0c-0.004,0 -0.008,-0.001 -0.012,-0.003 -0.015,-0.007 -0.021,-0.024 -0.014,-0.039l0.138 -0.291c0.004,-0.011 0.015,-0.018 0.027,-0.018l0.84 0 0.164 -0.132zm0.296 0.19l0.115 0.093c0.008,0.005 0.014,0.014 0.014,0.024l0 0.118 0.703 0 0.027 0 -0.111 -0.235 -0.748 0zm-1.365 0.235l0.703 0 0 -0.118 0 0c0,-0.008 0.004,-0.017 0.011,-0.022l0.118 -0.095 -0.748 0 -0.111 0.235 0.027 0zm1.933 0.659l0.088 0 0 -0.088 -0.088 0 0 0.088zm0.118 0.058l-0.147 0c-0.016,0 -0.029,-0.013 -0.029,-0.029l0 -0.146c0,-0.017 0.013,-0.03 0.029,-0.03l0.147 0c0.016,0 0.029,0.013 0.029,0.03l0 0.146c0,0.016 -0.013,0.029 -0.029,0.029zm-0.118 -0.351l0.088 0 0 -0.088 -0.088 0 0 0.088zm0.118 0.058l-0.147 0c-0.016,0 -0.029,-0.013 -0.029,-0.029l0 -0.146c0,-0.017 0.013,-0.03 0.029,-0.03l0.147 0c0.016,0 0.029,0.013 0.029,0.03l0 0.146c0,0.016 -0.013,0.029 -0.029,0.029zm-0.411 0.235l0.088 0 0 -0.088 -0.088 0 0 0.088zm0.118 0.058l-0.147 0c-0.016,0 -0.029,-0.013 -0.029,-0.029l0 -0.146c0,-0.017 0.013,-0.03 0.029,-0.03l0.147 0c0.016,0 0.029,0.013 0.029,0.03l0 0.146c0,0.016 -0.013,0.029 -0.029,0.029zm-0.118 -0.351l0.088 0 0 -0.088 -0.088 0 0 0.088zm0.118 0.058l-0.147 0c-0.016,0 -0.029,-0.013 -0.029,-0.029l0 -0.146c0,-0.017 0.013,-0.03 0.029,-0.03l0.147 0c0.016,0 0.029,0.013 0.029,0.03l0 0.146c0,0.016 -0.013,0.029 -0.029,0.029zm-0.264 -0.366l0 0.821 0.674 0 0 -0.821 -0.674 0zm-1.026 0.601l0.088 0 0 -0.088 -0.088 0 0 0.088zm0.118 0.058l-0.147 0c-0.016,0 -0.029,-0.013 -0.029,-0.029l0 -0.146c0,-0.017 0.013,-0.03 0.029,-0.03l0.147 0c0.016,0 0.029,0.013 0.029,0.03l0 0.146c0,0.016 -0.013,0.029 -0.029,0.029zm-0.118 -0.351l0.088 0 0 -0.088 -0.088 0 0 0.088zm0.118 0.058l-0.147 0c-0.016,0 -0.029,-0.013 -0.029,-0.029l0 -0.146c0,-0.017 0.013,-0.03 0.029,-0.03l0.147 0c0.016,0 0.029,0.013 0.029,0.03l0 0.146c0,0.016 -0.013,0.029 -0.029,0.029zm-0.411 0.235l0.088 0 0 -0.088 -0.088 0 0 0.088zm0.118 0.058l-0.147 0c-0.016,0 -0.029,-0.013 -0.029,-0.029l0 -0.146c0,-0.017 0.013,-0.03 0.029,-0.03l0.147 0c0.016,0 0.029,0.013 0.029,0.03l0 0.146c0,0.016 -0.013,0.029 -0.029,0.029zm-0.118 -0.351l0.088 0 0 -0.088 -0.088 0 0 0.088zm0.118 0.058l-0.147 0c-0.016,0 -0.029,-0.013 -0.029,-0.029l0 -0.146c0,-0.017 0.013,-0.03 0.029,-0.03l0.147 0c0.016,0 0.029,0.013 0.029,0.03l0 0.146c0,0.016 -0.013,0.029 -0.029,0.029zm1.172 0.513l-0.22 0 -0.293 0 -0.22 0 -0.732 0c-0.013,0 -0.024,0.005 -0.031,0.013 -0.008,0.008 -0.013,0.019 -0.013,0.031l0 0.044 2.285 0 0 -0.044c0,-0.011 -0.005,-0.022 -0.012,-0.03l-0.001 -0.001c-0.008,-0.008 -0.019,-0.013 -0.031,-0.013l-0.732 0zm-0.762 -0.058l0 -0.821 -0.674 0 0 0.821 0.674 0zm0.395 -0.953c0.039,0 0.073,0.016 0.099,0.041 0.025,0.025 0.04,0.06 0.04,0.098 0,0.039 -0.015,0.074 -0.04,0.099l0 0c-0.026,0.025 -0.06,0.041 -0.099,0.041 -0.038,0 -0.073,-0.016 -0.098,-0.041 -0.025,-0.025 -0.041,-0.06 -0.041,-0.099 0,-0.038 0.016,-0.073 0.041,-0.098l0 0c0.025,-0.025 0.06,-0.041 0.098,-0.041zm0.057 0.083c-0.014,-0.015 -0.034,-0.024 -0.057,-0.024 -0.022,0 -0.042,0.009 -0.057,0.023 -0.014,0.015 -0.023,0.035 -0.023,0.057 0,0.023 0.009,0.043 0.023,0.057 0.015,0.015 0.035,0.024 0.057,0.024 0.023,0 0.043,-0.009 0.057,-0.023l0 -0.001c0.015,-0.014 0.024,-0.034 0.024,-0.057 0,-0.022 -0.009,-0.042 -0.024,-0.056zm-0.394 0.87l0.161 0 0 -0.264c0,-0.048 0.02,-0.091 0.05,-0.123l0.002 -0.001c0.032,-0.032 0.076,-0.052 0.124,-0.052 0.049,0 0.093,0.02 0.124,0.052 0.032,0.032 0.052,0.075 0.052,0.124l0 0.264 0.161 0 0 -0.85 0 -0.133 -0.337 -0.269 -0.337 0.269 0 0.133 0 0.85zm0.22 0l0.234 0 0 -0.264c0,-0.032 -0.013,-0.062 -0.034,-0.083 -0.021,-0.021 -0.051,-0.034 -0.083,-0.034 -0.032,0 -0.061,0.013 -0.082,0.034l-0.002 0.001c-0.02,0.021 -0.033,0.05 -0.033,0.082l0 0.264zm0.147 -1.583l0 0.136c0.044,0.022 0.086,0.01 0.128,-0.002 0.034,-0.009 0.069,-0.018 0.106,-0.016l0 -0.158c-0.03,-0.003 -0.06,0.006 -0.09,0.014 -0.046,0.013 -0.092,0.025 -0.144,0.009l0 0.017z"/></g><text x="0" y="16.887" fill="#000000" font-size="5px" font-weight="bold" font-family="'Helvetica Neue', Helvetica, Arial-Unicode, Arial, Sans-serif">Created by Deemak Daksina</text><text x="0" y="21.887" fill="#000000" font-size="5px" font-weight="bold" font-family="'Helvetica Neue', Helvetica, Arial-Unicode, Arial, Sans-serif">from the Noun Project</text></svg>