<?xml version="1.0" encoding="UTF-8"?>
<svg width="700pt" height="700pt" version="1.1" viewBox="0 0 700 700" xmlns="http://www.w3.org/2000/svg">
 <g>
  <path d="m350 280c-23.207 0-45.461 9.2188-61.871 25.629s-25.629 38.664-25.629 61.871 9.2188 45.461 25.629 61.871 38.664 25.629 61.871 25.629 45.461-9.2188 61.871-25.629 25.629-38.664 25.629-61.871c-0.027344-23.199-9.2539-45.438-25.66-61.84-16.402-16.406-38.641-25.633-61.84-25.66zm0 140c-13.926 0-27.277-5.5312-37.125-15.375-9.8438-9.8477-15.375-23.199-15.375-37.125s5.5312-27.277 15.375-37.125c9.8477-9.8438 23.199-15.375 37.125-15.375s27.277 5.5312 37.125 15.375c9.8438 9.8477 15.375 23.199 15.375 37.125s-5.5312 27.277-15.375 37.125c-9.8477 9.8438-23.199 15.375-37.125 15.375z"/>
  <path d="m575.28 43.961c-1.5195-2.7188-3.7344-4.9805-6.4219-6.5547-2.6836-1.5781-5.7422-2.4062-8.8555-2.4062h-140c-6.0781 0-11.723 3.1523-14.91 8.3281l-55.09 89.566-55.09-89.566c-3.1875-5.1758-8.832-8.3281-14.91-8.3281h-140c-4.1719 0-8.207 1.4883-11.375 4.1992-3.1719 2.707-5.2695 6.4609-5.918 10.582-0.64844 4.1211 0.19922 8.3359 2.3828 11.891l117.55 190.93v-0.003906c-31.031 28.914-49.094 69.121-50.094 111.53-1 42.402 15.145 83.418 44.781 113.76 29.637 30.344 70.262 47.453 112.68 47.453s83.039-17.109 112.68-47.453c29.637-30.34 45.781-71.355 44.781-113.76-1-42.406-19.062-82.613-50.094-111.53l117.55-190.93v0.003906c1.6328-2.6523 2.5234-5.6953 2.5898-8.8086s-0.70312-6.1875-2.2227-8.9023zm-403.95 26.039h98.891l59.273 96.25-32.688 53.199c-9.0156 3.2383-17.715 7.2969-25.988 12.129zm301.18 297.5c0 32.488-12.906 63.648-35.879 86.621s-54.133 35.879-86.621 35.879-63.648-12.906-86.621-35.879-35.879-54.133-35.879-86.621 12.906-63.648 35.879-86.621 54.133-35.879 86.621-35.879c32.477 0.035156 63.613 12.957 86.578 35.922s35.887 54.102 35.922 86.578zm-43.312-135.92c-24-14.121-51.34-21.57-79.188-21.578-2.1875 0-4.3242 0.24609-6.4922 0.33203l86.273-140.33h98.895z"/>
 </g>
</svg>
