<?xml version="1.0" encoding="UTF-8"?>
<svg width="700pt" height="700pt" version="1.1" viewBox="0 0 700 700" xmlns="http://www.w3.org/2000/svg" xmlns:xlink="http://www.w3.org/1999/xlink">
 <defs>
  <symbol id="h" overflow="visible">
   <path d="m6.8906-0.40625c-0.35547 0.17969-0.72656 0.3125-1.1094 0.40625-0.38672 0.09375-0.78906 0.14062-1.2031 0.14062-1.25 0-2.2422-0.34766-2.9688-1.0469-0.73047-0.69531-1.0938-1.6445-1.0938-2.8438 0-1.1953 0.36328-2.1445 1.0938-2.8438 0.72656-0.69531 1.7188-1.0469 2.9688-1.0469 0.41406 0 0.81641 0.046875 1.2031 0.14062 0.38281 0.09375 0.75391 0.23438 1.1094 0.42188v1.5469c-0.35547-0.23828-0.71094-0.41406-1.0625-0.53125-0.34375-0.11328-0.71094-0.17188-1.0938-0.17188-0.6875 0-1.2305 0.22656-1.625 0.67188-0.39844 0.4375-0.59375 1.043-0.59375 1.8125 0 0.78125 0.19531 1.3984 0.59375 1.8438 0.39453 0.4375 0.9375 0.65625 1.625 0.65625 0.38281 0 0.75-0.054688 1.0938-0.17188 0.35156-0.11328 0.70703-0.29688 1.0625-0.54688z"/>
  </symbol>
  <symbol id="c" overflow="visible">
   <path d="m5.0469-4.0938c-0.15625-0.070312-0.3125-0.125-0.46875-0.15625-0.15625-0.039062-0.3125-0.0625-0.46875-0.0625-0.46875 0-0.82812 0.15234-1.0781 0.45312-0.24219 0.29297-0.35938 0.71484-0.35938 1.2656v2.5938h-1.8125v-5.625h1.8125v0.92188c0.22656-0.375 0.48828-0.64453 0.78125-0.8125 0.30078-0.16406 0.66406-0.25 1.0938-0.25 0.050781 0 0.11328 0.007813 0.1875 0.015625 0.070313 0 0.17578 0.007812 0.3125 0.015625z"/>
  </symbol>
  <symbol id="a" overflow="visible">
   <path d="m6.4844-2.8281v0.51562h-4.2031c0.039062 0.41797 0.19141 0.73438 0.45312 0.95312 0.25781 0.21094 0.625 0.3125 1.0938 0.3125 0.38281 0 0.77344-0.054687 1.1719-0.17188 0.39453-0.11328 0.80078-0.28516 1.2188-0.51562v1.3906c-0.42969 0.16797-0.85547 0.28906-1.2812 0.35938-0.42969 0.082031-0.85156 0.125-1.2656 0.125-1.0234 0-1.8203-0.25391-2.3906-0.76562-0.5625-0.51953-0.84375-1.25-0.84375-2.1875 0-0.91406 0.27344-1.6328 0.82812-2.1562 0.5625-0.53125 1.3281-0.79688 2.2969-0.79688 0.88281 0 1.5938 0.26562 2.125 0.79688s0.79688 1.2461 0.79688 2.1406zm-1.8438-0.59375c0-0.34375-0.10547-0.61719-0.3125-0.82812-0.19922-0.20703-0.46094-0.3125-0.78125-0.3125-0.34375 0-0.625 0.10156-0.84375 0.29688-0.21875 0.1875-0.35547 0.46875-0.40625 0.84375z"/>
  </symbol>
  <symbol id="l" overflow="visible">
   <path d="m3.3906-2.5312c-0.375 0-0.66406 0.0625-0.85938 0.1875-0.1875 0.125-0.28125 0.3125-0.28125 0.5625 0 0.23047 0.078125 0.41406 0.23438 0.54688 0.15625 0.125 0.36719 0.1875 0.64062 0.1875 0.33203 0 0.61328-0.11719 0.84375-0.35938 0.23828-0.25 0.35938-0.55469 0.35938-0.92188v-0.20312zm2.75-0.6875v3.2188h-1.8125v-0.82812c-0.24219 0.33594-0.51172 0.57812-0.8125 0.73438-0.30469 0.15625-0.67188 0.23438-1.1094 0.23438-0.58594 0-1.0586-0.16406-1.4219-0.5-0.36719-0.34375-0.54688-0.78516-0.54688-1.3281 0-0.66406 0.22656-1.1484 0.6875-1.4531 0.45703-0.3125 1.1719-0.46875 2.1406-0.46875h1.0625v-0.14062c0-0.28125-0.11719-0.48438-0.34375-0.60938-0.21875-0.13281-0.57031-0.20312-1.0469-0.20312-0.38672 0-0.74609 0.039062-1.0781 0.10938-0.33594 0.074219-0.64062 0.1875-0.92188 0.34375v-1.375c0.38281-0.09375 0.76953-0.16016 1.1562-0.20312 0.39453-0.050781 0.78516-0.078125 1.1719-0.078125 1.0078 0 1.7383 0.20312 2.1875 0.60938 0.45703 0.39844 0.6875 1.043 0.6875 1.9375z"/>
  </symbol>
  <symbol id="d" overflow="visible">
   <path d="m2.8281-7.2344v1.6094h1.8594v1.2812h-1.8594v2.3906c0 0.26172 0.050781 0.4375 0.15625 0.53125 0.10156 0.09375 0.3125 0.14062 0.625 0.14062h0.92188v1.2812h-1.5469c-0.71094 0-1.2148-0.14453-1.5156-0.4375-0.29297-0.30078-0.4375-0.80469-0.4375-1.5156v-2.3906h-0.89062v-1.2812h0.89062v-1.6094z"/>
  </symbol>
  <symbol id="k" overflow="visible">
   <path d="m4.7031-4.8125v-3.0156h1.7969v7.8281h-1.7969v-0.8125c-0.25 0.33594-0.52734 0.57812-0.82812 0.73438-0.30469 0.14453-0.64844 0.21875-1.0312 0.21875-0.69922 0-1.2734-0.27344-1.7188-0.82812-0.4375-0.55078-0.65625-1.2578-0.65625-2.125 0-0.86328 0.21875-1.5703 0.65625-2.125 0.44531-0.55078 1.0195-0.82812 1.7188-0.82812 0.38281 0 0.72656 0.078125 1.0312 0.23438 0.30078 0.15625 0.57812 0.39844 0.82812 0.71875zm-1.1875 3.6562c0.38281 0 0.67578-0.14062 0.875-0.42188 0.20703-0.28125 0.3125-0.69141 0.3125-1.2344 0-0.53125-0.10547-0.9375-0.3125-1.2188-0.19922-0.28125-0.49219-0.42188-0.875-0.42188-0.38672 0-0.68359 0.14062-0.89062 0.42188-0.19922 0.28125-0.29688 0.6875-0.29688 1.2188 0 0.54297 0.097656 0.95312 0.29688 1.2344 0.20703 0.28125 0.50391 0.42188 0.89062 0.42188z"/>
  </symbol>
  <symbol id="e" overflow="visible">
   <path d="m3.8594-1.1562c0.38281 0 0.67578-0.14062 0.875-0.42188 0.20703-0.28125 0.3125-0.69141 0.3125-1.2344 0-0.53125-0.10547-0.9375-0.3125-1.2188-0.19922-0.28125-0.49219-0.42188-0.875-0.42188-0.38672 0-0.68359 0.14062-0.89062 0.42188-0.19922 0.28125-0.29688 0.6875-0.29688 1.2188s0.097656 0.94531 0.29688 1.2344c0.20703 0.28125 0.50391 0.42188 0.89062 0.42188zm-1.1875-3.6562c0.23828-0.32031 0.50781-0.5625 0.8125-0.71875 0.30078-0.15625 0.64844-0.23438 1.0469-0.23438 0.69531 0 1.2656 0.27734 1.7031 0.82812 0.44531 0.55469 0.67188 1.2617 0.67188 2.125 0 0.86719-0.22656 1.5742-0.67188 2.125-0.4375 0.55469-1.0078 0.82812-1.7031 0.82812-0.39844 0-0.74609-0.078125-1.0469-0.23438-0.30469-0.15625-0.57422-0.39453-0.8125-0.71875v0.8125h-1.8125v-7.8281h1.8125z"/>
  </symbol>
  <symbol id="j" overflow="visible">
   <path d="m0.125-5.625h1.7969l1.5156 3.8125 1.2812-3.8125h1.8125l-2.375 6.1562c-0.24219 0.625-0.52344 1.0625-0.84375 1.3125-0.3125 0.25-0.72656 0.375-1.2344 0.375h-1.0469v-1.1719h0.5625c0.30078 0 0.51953-0.054687 0.65625-0.15625 0.14453-0.09375 0.25391-0.26562 0.32812-0.51562l0.0625-0.15625z"/>
  </symbol>
  <symbol id="i" overflow="visible">
   <path d="m3.7031-4.1719c0.39453 0 0.67969-0.070313 0.85938-0.21875 0.17578-0.15625 0.26562-0.41016 0.26562-0.76562 0-0.33203-0.089844-0.57031-0.26562-0.71875-0.17969-0.15625-0.46484-0.23438-0.85938-0.23438h-0.82812v1.9375zm-0.82812 1.3281v2.8438h-1.9375v-7.5h2.9688c0.98828 0 1.7109 0.16797 2.1719 0.5 0.45703 0.32422 0.6875 0.84375 0.6875 1.5625 0 0.5-0.12109 0.91406-0.35938 1.2344-0.24219 0.3125-0.60156 0.54297-1.0781 0.6875 0.25781 0.0625 0.49219 0.20312 0.70312 0.42188 0.20703 0.21094 0.42188 0.53125 0.64062 0.96875l1.0469 2.125h-2.0625l-0.90625-1.8594c-0.1875-0.375-0.375-0.62891-0.5625-0.76562-0.1875-0.14453-0.44531-0.21875-0.76562-0.21875z"/>
  </symbol>
  <symbol id="b" overflow="visible">
   <path d="m3.5469-4.4844c-0.39844 0-0.70312 0.14844-0.92188 0.4375-0.21094 0.28125-0.3125 0.69531-0.3125 1.2344 0 0.54297 0.10156 0.96094 0.3125 1.25 0.21875 0.28125 0.52344 0.42188 0.92188 0.42188 0.39453 0 0.69141-0.14062 0.89062-0.42188 0.20703-0.28906 0.3125-0.70703 0.3125-1.25 0-0.53906-0.10547-0.95312-0.3125-1.2344-0.19922-0.28906-0.49609-0.4375-0.89062-0.4375zm0-1.2812c0.96875 0 1.7227 0.26172 2.2656 0.78125 0.53906 0.52344 0.8125 1.2461 0.8125 2.1719 0 0.92969-0.27344 1.6523-0.8125 2.1719-0.54297 0.52344-1.2969 0.78125-2.2656 0.78125s-1.7305-0.25781-2.2812-0.78125c-0.55469-0.51953-0.82812-1.2422-0.82812-2.1719 0-0.92578 0.27344-1.6484 0.82812-2.1719 0.55078-0.51953 1.3125-0.78125 2.2812-0.78125z"/>
  </symbol>
  <symbol id="g" overflow="visible">
   <path d="m5.2656-5.4531v1.3594c-0.38672-0.15625-0.76172-0.26953-1.125-0.34375-0.35547-0.082031-0.69531-0.125-1.0156-0.125-0.33594 0-0.58594 0.042969-0.75 0.125-0.16797 0.085938-0.25 0.21484-0.25 0.39062 0 0.14844 0.0625 0.26172 0.1875 0.34375 0.125 0.074219 0.34766 0.125 0.67188 0.15625l0.3125 0.046875c0.92578 0.11719 1.5469 0.30859 1.8594 0.57812 0.32031 0.27344 0.48438 0.69531 0.48438 1.2656 0 0.59375-0.22656 1.043-0.67188 1.3438-0.4375 0.30469-1.0938 0.45312-1.9688 0.45312-0.375 0-0.76172-0.03125-1.1562-0.09375-0.39844-0.050781-0.80469-0.13281-1.2188-0.25v-1.375c0.35156 0.17969 0.71875 0.3125 1.0938 0.40625 0.375 0.085937 0.75781 0.125 1.1562 0.125 0.35156 0 0.61719-0.046875 0.79688-0.14062 0.17578-0.10156 0.26562-0.25 0.26562-0.4375 0-0.16406-0.0625-0.28516-0.1875-0.35938-0.125-0.082031-0.37109-0.14453-0.73438-0.1875l-0.3125-0.046875c-0.80469-0.09375-1.3672-0.27344-1.6875-0.54688-0.32422-0.26953-0.48438-0.67969-0.48438-1.2344 0-0.60156 0.20312-1.0469 0.60938-1.3281 0.41406-0.28906 1.0469-0.4375 1.8906-0.4375 0.33203 0 0.67969 0.027344 1.0469 0.078125 0.36328 0.054688 0.75781 0.13281 1.1875 0.23438z"/>
  </symbol>
  <symbol id="v" overflow="visible">
   <path d="m0.35938-5.625h1.75l0.95312 3.875 0.9375-3.875h1.5156l0.9375 3.8281 0.95312-3.8281h1.75l-1.4844 5.625h-1.9688l-0.95312-3.875-0.9375 3.875h-1.9688z"/>
  </symbol>
  <symbol id="f" overflow="visible">
   <path d="m0.85938-7.8281h1.8125v7.8281h-1.8125z"/>
  </symbol>
  <symbol id="u" overflow="visible">
   <path d="m4.5625-7.8281v1.1875h-0.98438c-0.26172 0-0.44531 0.046875-0.54688 0.14062-0.09375 0.09375-0.14062 0.25781-0.14062 0.48438v0.39062h1.5312v1.2812h-1.5312v4.3438h-1.7969v-4.3438h-0.89062v-1.2812h0.89062v-0.39062c0-0.61328 0.16406-1.0664 0.5-1.3594 0.34375-0.30078 0.875-0.45312 1.5938-0.45312z"/>
  </symbol>
  <symbol id="t" overflow="visible">
   <path d="m6.0781-4.7031c0.22656-0.34375 0.5-0.60156 0.8125-0.78125 0.3125-0.1875 0.65625-0.28125 1.0312-0.28125 0.65625 0 1.1484 0.20312 1.4844 0.60938 0.34375 0.39844 0.51562 0.97656 0.51562 1.7344v3.4219h-1.8125v-2.9375-0.125-0.20312c0-0.40625-0.058594-0.69531-0.17188-0.875-0.11719-0.17578-0.30469-0.26562-0.5625-0.26562-0.34375 0-0.60938 0.14062-0.79688 0.42188s-0.28125 0.6875-0.28125 1.2188v2.7656h-1.8125v-2.9375c0-0.625-0.058594-1.0234-0.17188-1.2031-0.10547-0.17578-0.29297-0.26562-0.5625-0.26562-0.34375 0-0.60938 0.14062-0.79688 0.42188s-0.28125 0.6875-0.28125 1.2188v2.7656h-1.8125v-5.625h1.8125v0.8125c0.21875-0.3125 0.46875-0.54688 0.75-0.70312 0.28906-0.16406 0.60938-0.25 0.95312-0.25 0.38281 0 0.72656 0.09375 1.0312 0.28125 0.30078 0.1875 0.52344 0.44922 0.67188 0.78125z"/>
  </symbol>
  <symbol id="s" overflow="visible">
   <path d="m6.5312-3.4219v3.4219h-1.8125v-2.6094c0-0.5-0.011719-0.83594-0.03125-1.0156-0.023438-0.1875-0.0625-0.32031-0.125-0.40625-0.0625-0.125-0.15625-0.21875-0.28125-0.28125-0.11719-0.0625-0.25-0.09375-0.40625-0.09375-0.375 0-0.67188 0.14844-0.89062 0.4375-0.21094 0.28125-0.3125 0.68359-0.3125 1.2031v2.7656h-1.8125v-7.8281h1.8125v3.0156c0.26953-0.32031 0.55469-0.5625 0.85938-0.71875 0.30078-0.15625 0.64062-0.23438 1.0156-0.23438 0.64453 0 1.1328 0.20312 1.4688 0.60938 0.34375 0.39844 0.51562 0.97656 0.51562 1.7344z"/>
  </symbol>
  <symbol id="r" overflow="visible">
   <path d="m0.9375-7.5h2.1719l2.7344 5.1406v-5.1406h1.8281v7.5h-2.1562l-2.7344-5.1562v5.1562h-1.8438z"/>
  </symbol>
  <symbol id="q" overflow="visible">
   <path d="m0.79688-2.1875v-3.4375h1.8125v0.5625 1.1406 0.92188c0 0.46094 0.007813 0.78906 0.03125 0.98438 0.019531 0.19922 0.0625 0.34375 0.125 0.4375 0.070313 0.11719 0.16406 0.20312 0.28125 0.26562 0.125 0.0625 0.25781 0.09375 0.40625 0.09375 0.375 0 0.67188-0.14062 0.89062-0.42188 0.21875-0.28906 0.32812-0.69141 0.32812-1.2031v-2.7812h1.7969v5.625h-1.7969v-0.8125c-0.27344 0.32422-0.5625 0.5625-0.875 0.71875-0.30469 0.15625-0.63672 0.23438-1 0.23438-0.64844 0-1.1406-0.19531-1.4844-0.59375-0.34375-0.39453-0.51562-0.97266-0.51562-1.7344z"/>
  </symbol>
  <symbol id="p" overflow="visible">
   <path d="m6.5312-3.4219v3.4219h-1.8125v-2.625c0-0.48828-0.011719-0.82031-0.03125-1-0.023438-0.1875-0.0625-0.32031-0.125-0.40625-0.0625-0.125-0.15625-0.21875-0.28125-0.28125-0.11719-0.0625-0.25-0.09375-0.40625-0.09375-0.375 0-0.67188 0.14844-0.89062 0.4375-0.21094 0.28125-0.3125 0.68359-0.3125 1.2031v2.7656h-1.8125v-5.625h1.8125v0.8125c0.26953-0.32031 0.55469-0.5625 0.85938-0.71875 0.30078-0.15625 0.64062-0.23438 1.0156-0.23438 0.64453 0 1.1328 0.20312 1.4688 0.60938 0.34375 0.39844 0.51562 0.97656 0.51562 1.7344z"/>
  </symbol>
  <symbol id="o" overflow="visible">
   <path d="m0.9375-7.5h3.2188c0.95703 0 1.6914 0.21484 2.2031 0.64062 0.50781 0.41797 0.76562 1.0156 0.76562 1.7969 0 0.79297-0.25781 1.4023-0.76562 1.8281-0.51172 0.41797-1.2461 0.625-2.2031 0.625h-1.2812v2.6094h-1.9375zm1.9375 1.3906v2.1094h1.0781c0.375 0 0.66016-0.09375 0.85938-0.28125 0.20703-0.1875 0.3125-0.44531 0.3125-0.78125 0-0.33203-0.10547-0.58594-0.3125-0.76562-0.19922-0.1875-0.48438-0.28125-0.85938-0.28125z"/>
  </symbol>
  <symbol id="n" overflow="visible">
   <path d="m0.85938-5.625h1.8125v5.5312c0 0.75-0.18359 1.3203-0.54688 1.7188-0.36719 0.39453-0.89062 0.59375-1.5781 0.59375h-0.89062v-1.1719h0.3125c0.34375 0 0.57812-0.078125 0.70312-0.23438s0.1875-0.46094 0.1875-0.90625zm0-2.2031h1.8125v1.4688h-1.8125z"/>
  </symbol>
  <symbol id="m" overflow="visible">
   <path d="m5.4219-5.4531v1.4688c-0.25-0.16406-0.5-0.28906-0.75-0.375-0.24219-0.082031-0.49609-0.125-0.76562-0.125-0.5 0-0.89062 0.15234-1.1719 0.45312-0.28125 0.29297-0.42188 0.69922-0.42188 1.2188 0 0.53125 0.14062 0.94531 0.42188 1.2344 0.28125 0.29297 0.67188 0.4375 1.1719 0.4375 0.28125 0 0.54688-0.039063 0.79688-0.125 0.25781-0.082031 0.5-0.20703 0.71875-0.375v1.4688c-0.28125 0.10547-0.57031 0.17969-0.85938 0.23438-0.29297 0.050781-0.58594 0.078125-0.875 0.078125-1.0234 0-1.8203-0.25781-2.3906-0.78125-0.57422-0.51953-0.85938-1.2422-0.85938-2.1719 0-0.92578 0.28516-1.6484 0.85938-2.1719 0.57031-0.51953 1.3672-0.78125 2.3906-0.78125 0.28906 0 0.57812 0.027344 0.85938 0.078125 0.28906 0.054688 0.58203 0.13281 0.875 0.23438z"/>
  </symbol>
 </defs>
 <g>
  <path d="m688.79 376.62-0.45312-1.1328-0.61719-1.0508c-39.309-67.219-86.996-62.34-124.14-50.609-50.402 15.93-67.918 67.113-61.145 97.926 5.3086 24.266 32.25 48.141 60.055 53.203 15.805 2.8828 45.832 2.3242 69.336-33.855 3.2031-4.9336 3.5352-11.203 0.86328-16.449-2.668-5.2422-7.9336-8.6641-13.809-8.9727s-11.469 2.5391-14.676 7.4727c-10.004 15.375-22.062 21.918-35.812 19.406-17.352-3.168-31.84-18.852-33.793-27.848-3.457-15.848 6.5664-49.27 38.898-59.5 34.371-10.867 59.398-8.6445 85.164 34.762 11.957 30.562 11.215 57.008-2.1797 78.641-17.988 29.02-53.406 41.902-72.816 43.488-44.742 3.6211-63.637-5-82.922-22.164-21.816-19.449-31.406-41.984-35.379-83.188-2.9023-30.152 7.4492-59.891 29.164-83.785 25.941-28.062 62.363-44.102 100.58-44.289 5.9922 0.003906 11.973 0.41406 17.906 1.2344h0.20703c4.2109 1.1562 8.707 0.63672 12.547-1.4531 3.8359-2.0859 6.7148-5.5781 8.0312-9.7422 0.77344-4.8828-0.41797-9.8711-3.3164-13.875-2.8945-4-7.2617-6.6953-12.137-7.4883h-0.57813l-292.43-75.574-163.56-148.18h-4.6914c-85.719 0-156.83 68.699-157.07 154.36v0.003906c-0.28125 47.77 21.68 92.957 59.418 122.25l2.8203 2.1797 144.58 35.812c-1.4414 16.465-3.9531 30.871-8.9102 39.391-17.492 30.027-90.762 61.207-90.762 61.207l1.3789 2.5117 76.973 3.293-36.473 57.359c23.152-9.2617 109.82-47.172 124.16-100.7 2.75-10.676 4.6836-21.547 5.7852-32.516l197.8 144.38h-0.003906c0.51562 0.35937 1.0547 0.6875 1.6055 0.98828l0.47266 0.43359c21.488 19.141 44.312 31.305 86.336 31.305 6.5664 0 13.582-0.28906 21.156-0.90625 31.242-2.5312 75.285-22.062 98.152-58.965 13.297-21.488 24.844-57.918 4.2852-109.35zm-611.65-104.45c-25.41-21.133-41.203-51.641-43.781-84.59-2.582-32.949 8.2656-65.543 30.074-90.375 21.812-24.832 52.734-39.793 85.742-41.484l125.4 114c-16.898 15.641-55.57 53.059-61.062 73.105-3.6641 13.254-4.1172 37.312-4.918 61.949zm360.52 171.62-156.15-113.98c1.0273-27.25 1.3164-51.762 7.1211-65.426 11.75-27.641 38.137-45.648 54.23-54.52l187.74 48.676v0.18359l0.003906-0.003906c-23 9.4102-43.641 23.781-60.445 42.09-28.031 30.871-41.367 69.586-37.559 109.08h-0.003906c0.98828 11.363 2.7266 22.645 5.207 33.773z"/>
  <use y="576.710938" xlink:href="#h"/>
  <use x="7.550781" y="576.710938" xlink:href="#c"/>
  <use x="12.625" y="576.710938" xlink:href="#a"/>
  <use x="19.605469" y="576.710938" xlink:href="#l"/>
  <use x="26.550781" y="576.710938" xlink:href="#d"/>
  <use x="31.46875" y="576.710938" xlink:href="#a"/>
  <use x="38.449219" y="576.710938" xlink:href="#k"/>
  <use x="49.398438" y="576.710938" xlink:href="#e"/>
  <use x="56.761719" y="576.710938" xlink:href="#j"/>
  <use x="67.054688" y="576.710938" xlink:href="#i"/>
  <use x="74.976562" y="576.710938" xlink:href="#b"/>
  <use x="82.046875" y="576.710938" xlink:href="#e"/>
  <use x="92.996094" y="576.710938" xlink:href="#h"/>
  <use x="100.546875" y="576.710938" xlink:href="#c"/>
  <use x="105.625" y="576.710938" xlink:href="#b"/>
  <use x="112.691406" y="576.710938" xlink:href="#g"/>
  <use x="118.816406" y="576.710938" xlink:href="#g"/>
  <use x="124.941406" y="576.710938" xlink:href="#v"/>
  <use x="134.449219" y="576.710938" xlink:href="#a"/>
  <use x="141.429688" y="576.710938" xlink:href="#f"/>
  <use x="144.957031" y="576.710938" xlink:href="#f"/>
  <use y="587.003906" xlink:href="#u"/>
  <use x="4.476562" y="587.003906" xlink:href="#c"/>
  <use x="9.550781" y="587.003906" xlink:href="#b"/>
  <use x="16.621094" y="587.003906" xlink:href="#t"/>
  <use x="30.925781" y="587.003906" xlink:href="#d"/>
  <use x="35.847656" y="587.003906" xlink:href="#s"/>
  <use x="43.171875" y="587.003906" xlink:href="#a"/>
  <use x="53.734375" y="587.003906" xlink:href="#r"/>
  <use x="62.347656" y="587.003906" xlink:href="#b"/>
  <use x="69.414062" y="587.003906" xlink:href="#q"/>
  <use x="76.742188" y="587.003906" xlink:href="#p"/>
  <use x="87.648438" y="587.003906" xlink:href="#o"/>
  <use x="95.191406" y="587.003906" xlink:href="#c"/>
  <use x="100.265625" y="587.003906" xlink:href="#b"/>
  <use x="107.335938" y="587.003906" xlink:href="#n"/>
  <use x="110.863281" y="587.003906" xlink:href="#a"/>
  <use x="117.84375" y="587.003906" xlink:href="#m"/>
  <use x="123.941406" y="587.003906" xlink:href="#d"/>
 </g>
</svg>
