<svg xmlns="http://www.w3.org/2000/svg" xmlns:xlink="http://www.w3.org/1999/xlink" version="1.1" x="0px" y="0px" viewBox="0 0 100 125" enable-background="new 0 0 100 100" xml:space="preserve"><g><g><path d="M93.772,78.718H57.658c-0.916,0-1.659-0.743-1.659-1.659s0.743-1.659,1.659-1.659h36.114c2.08,0,2.242-1.714,2.242-2.239    V26.841c0-1.98-1.579-2.227-2.26-2.241H48.134c-1.981,0-2.228,1.578-2.242,2.257v28.636c0,0.916-0.743,1.659-1.659,1.659    c-0.916,0-1.659-0.743-1.659-1.659V26.841c0-2.234,1.481-5.559,5.56-5.559h45.638c2.233,0,5.56,1.48,5.56,5.559V73.16    C99.332,75.395,97.851,78.718,93.772,78.718z"/></g><g><path d="M42.15,78.716c-0.204,0-0.409-0.039-0.606-0.114c-0.635-0.251-1.053-0.862-1.053-1.545    c0-7.784-5.321-14.659-12.939-16.716c-0.667-0.18-1.153-0.756-1.219-1.443c-0.066-0.689,0.303-1.346,0.924-1.648    c3.414-1.665,5.535-5.002,5.535-8.709c0-5.374-4.437-9.746-9.889-9.746c-5.453,0-9.889,4.372-9.889,9.746    c0,3.707,2.122,7.044,5.537,8.709c0.622,0.303,0.99,0.959,0.925,1.648c-0.065,0.688-0.552,1.264-1.219,1.443    c-7.62,2.057-12.94,8.932-12.94,16.716c0,0.916-0.743,1.659-1.659,1.659C2.742,78.716,2,77.973,2,77.057    C2,68.922,6.862,61.624,14.167,58.3c-2.815-2.439-4.469-5.952-4.469-9.76c0-7.204,5.924-13.063,13.207-13.063    c7.282,0,13.207,5.86,13.207,13.063c0,3.808-1.653,7.319-4.468,9.76c6.133,2.791,10.543,8.385,11.801,14.922l19.724-21.269    c0.622-0.673,1.674-0.711,2.344-0.088c0.672,0.623,0.713,1.671,0.089,2.343L43.366,78.185    C43.046,78.53,42.603,78.716,42.15,78.716z"/></g></g><text x="0" y="115" fill="#000000" font-size="5px" font-weight="bold" font-family="'Helvetica Neue', Helvetica, Arial-Unicode, Arial, Sans-serif">Created by Gianluca Manzana</text><text x="0" y="120" fill="#000000" font-size="5px" font-weight="bold" font-family="'Helvetica Neue', Helvetica, Arial-Unicode, Arial, Sans-serif">from the Noun Project</text></svg>