<svg xmlns="http://www.w3.org/2000/svg" data-name="Layer 1" viewBox="0 0 32 40" x="0px" y="0px"><title>Copy, Link, Web Page, Href, interface_1</title><path d="M10,26a3,3,0,0,1-2.12-5.12l1-1a3.07,3.07,0,0,1,4.24,0,3,3,0,0,1,0,4.24l-1,1A3,3,0,0,1,10,26Zm1-5a1,1,0,0,0-.71.29h0l-1,1a1,1,0,0,0,0,1.41,1,1,0,0,0,1.41,0l1-1A1,1,0,0,0,11,21Zm-1.41-.41h0Z"/><path d="M15,21a3,3,0,0,1-2.12-5.12l1-1a3.07,3.07,0,0,1,4.24,0,3,3,0,0,1,0,4.24l-1,1A3,3,0,0,1,15,21Zm1-5a1,1,0,0,0-.71.29h0l-1,1a1,1,0,0,0,0,1.41,1,1,0,0,0,1.41,0l1-1A1,1,0,0,0,16,16Zm-1.41-.41h0Z"/><path d="M12,22a1,1,0,0,1-.71-1.71l2-2a1,1,0,0,1,1.41,1.41l-2,2A1,1,0,0,1,12,22Z"/><path d="M23,12H19a3,3,0,0,1-3-3V5a1,1,0,0,1,1.71-.71l6,6A1,1,0,0,1,23,12ZM18,7.41V9a1,1,0,0,0,1,1h1.59Z"/><path d="M21,32H5a3,3,0,0,1-3-3V7A3,3,0,0,1,5,4H17a1,1,0,0,1,.71.29l6,6A1,1,0,0,1,24,11V29A3,3,0,0,1,21,32ZM5,6A1,1,0,0,0,4,7V29a1,1,0,0,0,1,1H21a1,1,0,0,0,1-1V11.41L16.59,6Z"/><path d="M29,8H25a3,3,0,0,1-3-3V1A1,1,0,0,1,23.71.29l6,6A1,1,0,0,1,29,8ZM24,3.41V5a1,1,0,0,0,1,1h1.59Z"/><path d="M27,28H23a1,1,0,0,1,0-2h4a1,1,0,0,0,1-1V7.41L22.59,2H11a1,1,0,0,0-1,1V5A1,1,0,0,1,8,5V3a3,3,0,0,1,3-3H23a1,1,0,0,1,.71.29l6,6A1,1,0,0,1,30,7V25A3,3,0,0,1,27,28Z"/><text x="0" y="47" fill="#000000" font-size="5px" font-weight="bold" font-family="'Helvetica Neue', Helvetica, Arial-Unicode, Arial, Sans-serif">Created by Omar Safaa</text><text x="0" y="52" fill="#000000" font-size="5px" font-weight="bold" font-family="'Helvetica Neue', Helvetica, Arial-Unicode, Arial, Sans-serif">from the Noun Project</text></svg>