<svg xmlns="http://www.w3.org/2000/svg" viewBox="0 0 32 40" enable-background="new 0 0 32 32" x="0px" y="0px"><g><path d="M27 7c-.553 0-1-.448-1-1 0-1.103-.897-2-2-2h-20c-.552 0-1-.448-1-1s.448-1 1-1h20c2.206 0 4 1.794 4 4 0 .552-.447 1-1 1zM27 27c-.553 0-1-.447-1-1v-4c0-.553.447-1 1-1s1 .447 1 1v4c0 .553-.447 1-1 1zM27 9c-.553 0-1-.448-1-1v-2c0-1.103-.897-2-2-2h-20c-.552 0-1-.448-1-1s.448-1 1-1h20c2.206 0 4 1.794 4 4v2c0 .552-.447 1-1 1zM27 32c-2.56 0-16.097-1.865-17.098-2.004-2.12-.137-3.902-2.034-3.902-4.166v-16.83h-5c-.552 0-1-.448-1-1v-1.83c0-2.224 1.663-4.053 3.787-4.164 1.117-.062 2.163.33 2.966 1.092.792.752 1.247 1.81 1.247 2.902v19.83c0 1.097.954 2.108 2.043 2.171l.018.001c.502.021.968-.14 1.322-.476.392-.372.617-.928.617-1.526 0-.553.448-1 1-1h18c.553 0 1 .447 1 1v1.001c0 2.896-2.103 4.999-5 4.999zm-13.766-3.569c5.194.694 12.15 1.569 13.766 1.569 2.072 0 3-1.506 3-2.999v-.001h-16.118c-.124.52-.344 1.007-.648 1.431zm-11.234-21.431h4v-1c0-.554-.222-1.07-.624-1.451-.401-.381-.926-.576-1.485-.546-1.043.055-1.891 1.027-1.891 2.167v.83zM24 19c-.553 0-1-.447-1-1v-6c0-.404.243-.769.617-.924.375-.154.804-.069 1.09.217l3 3c.391.391.391 1.023 0 1.414s-1.023.391-1.414 0l-1.293-1.293v3.586c0 .553-.447 1-1 1zM21 16c-.256 0-.512-.098-.707-.293-.391-.391-.391-1.023 0-1.414l3-3c.391-.391 1.023-.391 1.414 0s.391 1.023 0 1.414l-3 3c-.195.195-.451.293-.707.293zM24 23c-4.411 0-8-3.589-8-8s3.589-8 8-8 8 3.589 8 8-3.589 8-8 8zm0-14c-3.309 0-6 2.691-6 6s2.691 6 6 6 6-2.691 6-6-2.691-6-6-6z"/></g><text x="0" y="47" fill="#000000" font-size="5px" font-weight="bold" font-family="'Helvetica Neue', Helvetica, Arial-Unicode, Arial, Sans-serif">Created by ✦ Shmidt Sergey ✦</text><text x="0" y="52" fill="#000000" font-size="5px" font-weight="bold" font-family="'Helvetica Neue', Helvetica, Arial-Unicode, Arial, Sans-serif">from the Noun Project</text></svg>