<svg xmlns="http://www.w3.org/2000/svg" xmlns:xlink="http://www.w3.org/1999/xlink" version="1.1" x="0px" y="0px" viewBox="0 0 100 125" enable-background="new 0 0 100 100" xml:space="preserve"><path d="M29.058,50.989l-2.229-3.461l0.984-0.229l2.468-0.574l-2.195-1.267l-4.601-2.654c0.495-0.824,0.793-1.777,0.793-2.805  c0-3.033-2.467-5.5-5.5-5.5s-5.5,2.467-5.5,5.5s2.467,5.5,5.5,5.5c0.678,0,1.321-0.138,1.921-0.363l0.72,4.676l0.381,2.477  l1.428-2.059l0.483-0.696l2.229,3.462l0.542,0.842l0.841-0.543l1.434-0.924l0.84-0.541L29.058,50.989z M18.779,44.5  c-2.481,0-4.5-2.019-4.5-4.5s2.019-4.5,4.5-4.5s4.5,2.019,4.5,4.5c0,0.848-0.251,1.628-0.665,2.302l-0.775-0.447l-0.51-0.294  c0.28-0.456,0.449-0.987,0.449-1.561c0-1.657-1.343-3-3-3s-3,1.343-3,3s1.343,3,3,3c0.56,0,1.078-0.163,1.526-0.43l0.047,0.304  l0.192,1.245C20,44.354,19.409,44.5,18.779,44.5z M26.784,52.455l-3.039-4.72l-1.336,1.925l-1.069-6.939l6.248,3.604l-2.367,0.55  l2.997,4.655L26.784,52.455z M18.779,25.5c3.033,0,5.5-2.467,5.5-5.5s-2.467-5.5-5.5-5.5s-5.5,2.467-5.5,5.5  S15.746,25.5,18.779,25.5z M18.779,15.5c2.481,0,4.5,2.019,4.5,4.5s-2.019,4.5-4.5,4.5s-4.5-2.019-4.5-4.5S16.297,15.5,18.779,15.5z   M18.779,54.5c-3.033,0-5.5,2.467-5.5,5.5c0,3.032,2.467,5.5,5.5,5.5s5.5-2.468,5.5-5.5C24.279,56.967,21.812,54.5,18.779,54.5z   M18.779,64.5c-2.481,0-4.5-2.019-4.5-4.5s2.019-4.5,4.5-4.5s4.5,2.019,4.5,4.5S21.26,64.5,18.779,64.5z M18.779,74.5  c-3.033,0-5.5,2.468-5.5,5.5s2.467,5.5,5.5,5.5s5.5-2.468,5.5-5.5S21.812,74.5,18.779,74.5z M18.779,84.5  c-2.481,0-4.5-2.019-4.5-4.5s2.019-4.5,4.5-4.5s4.5,2.019,4.5,4.5S21.26,84.5,18.779,84.5z M29.283,38.5h57.438v3H29.283V38.5z   M86.721,18.5v3H29.283v-3H86.721z M29.283,58.5h57.438v3H29.283V58.5z M29.283,78.5h57.438v3H29.283V78.5z"/><!--<text x="0" y="115" fill="#000000" font-size="5px" font-weight="bold" font-family="'Helvetica Neue', Helvetica, Arial-Unicode, Arial, Sans-serif">Created by Aenne Brielmann</text><text x="0" y="120" fill="#000000" font-size="5px" font-weight="bold" font-family="'Helvetica Neue', Helvetica, Arial-Unicode, Arial, Sans-serif">from the Noun Project</text>--></svg>