<svg xmlns="http://www.w3.org/2000/svg" viewBox="0 0 40 50" x="0px" y="0px"><path fill="#000000" fill-rule="evenodd" d="M60,8 L60,5.99124431 C60,4.89151044 60.8970262,4 62.0049466,4 L81.9950534,4 C83.1023548,4 84,4.89989752 84,5.99124431 L84,30.0087557 C84,31.1084896 83.1029738,32 81.9950534,32 L80,32 L80,34.0087557 C80,35.1084896 79.1029738,36 77.9950534,36 L58.0049466,36 C56.8976452,36 56,35.1001025 56,34.0087557 L56,9.99124431 C56,8.89151044 56.8970262,8 58.0049466,8 L60,8 Z M60,10 L58.4943848,10 C58.2246094,10 58,10.2244281 58,10.5012741 L58,33.4987259 C58,33.7777346 58.2213436,34 58.4943848,34 L77.5056152,34 C77.7753906,34 78,33.7755719 78,33.4987259 L78,32 L62.0049466,32 C60.8976452,32 60,31.1001025 60,30.0087557 L60,10 Z M62,6.50127411 L62,29.4987259 C62,29.7777346 62.2213436,30 62.4943848,30 L81.5056152,30 C81.7753906,30 82,29.7755719 82,29.4987259 L82,6.50127411 C82,6.22226536 81.7786564,6 81.5056152,6 L62.4943848,6 C62.2246094,6 62,6.22442806 62,6.50127411 Z M66,15.5 C66,15.2238576 66.2290006,15 66.5003473,15 L77.4996527,15 C77.7759869,15 78,15.2319336 78,15.5 C78,15.7761424 77.7709994,16 77.4996527,16 L66.5003473,16 C66.2240131,16 66,15.7680664 66,15.5 Z M66,19.5 C66,19.2238576 66.2290006,19 66.5003473,19 L77.4996527,19 C77.7759869,19 78,19.2319336 78,19.5 C78,19.7761424 77.7709994,20 77.4996527,20 L66.5003473,20 C66.2240131,20 66,19.7680664 66,19.5 Z M66,23.5 C66,23.2238576 66.2290006,23 66.5003473,23 L77.4996527,23 C77.7759869,23 78,23.2319336 78,23.5 C78,23.7761424 77.7709994,24 77.4996527,24 L66.5003473,24 C66.2240131,24 66,23.7680664 66,23.5 Z M66,11.5 C66,11.2238576 66.2290006,11 66.5003473,11 L77.4996527,11 C77.7759869,11 78,11.2319336 78,11.5 C78,11.7761424 77.7709994,12 77.4996527,12 L66.5003473,12 C66.2240131,12 66,11.7680664 66,11.5 Z" transform="translate(-50)"/></svg>