<svg xmlns="http://www.w3.org/2000/svg" xmlns:xlink="http://www.w3.org/1999/xlink" version="1.1" x="0px" y="0px" viewBox="0 0 100 125" style="enable-background:new 0 0 100 100;" xml:space="preserve"><g><path d="M5.002,30.004H55V10.007H5.002V0.006h-5v99.988h5v-9.999H40V69.998H5.002V60h64.997V40.003H5.002V30.004z M5.002,15.006H50   v9.999H5.002V15.006z M35,74.998v9.998H5.002v-9.998H35z M64.999,45.002V55H5.002v-9.998H64.999z M60,15.006   c0-2.763,2.235-5,4.999-5s5,2.236,5,5c0,2.758-2.236,5-5,5S60,17.765,60,15.006z M79.998,20.006c2.764,0,5,2.235,5,5   c0,2.757-2.236,4.999-5,4.999s-4.999-2.241-4.999-4.999C74.999,22.241,77.234,20.006,79.998,20.006z M79.998,10.007l-9.999,19.997   h-5l10-19.997H79.998z M79.998,50.001c-2.764,0-4.999-2.24-4.999-4.999c0-2.763,2.235-4.999,4.999-4.999s5,2.236,5,4.999   C84.998,47.761,82.762,50.001,79.998,50.001z M99.998,55c0,2.764-2.236,5-5,5s-5-2.236-5-5c0-2.763,2.236-4.999,5-4.999   S99.998,52.237,99.998,55z M94.998,40.003L84.998,60h-5l10-19.997H94.998z M50,79.997c-2.764,0-5-2.236-5-4.999   c0-2.764,2.236-5,5-5s5,2.236,5,5C55,77.761,52.764,79.997,50,79.997z M69.999,84.996c0,2.763-2.236,4.999-5,4.999   S60,87.759,60,84.996s2.235-4.999,4.999-4.999S69.999,82.233,69.999,84.996z M64.999,69.998L55,89.995h-5l10-19.997H64.999z"/></g><!--<text x="0" y="115" fill="#000000" font-size="5px" font-weight="bold" font-family="'Helvetica Neue', Helvetica, Arial-Unicode, Arial, Sans-serif">Created by b farias</text><text x="0" y="120" fill="#000000" font-size="5px" font-weight="bold" font-family="'Helvetica Neue', Helvetica, Arial-Unicode, Arial, Sans-serif">from the Noun Project</text>--></svg>