<svg xmlns="http://www.w3.org/2000/svg" xmlns:xlink="http://www.w3.org/1999/xlink" viewBox="0 0 84 105" version="1.1" xml:space="preserve" style="" x="0px" y="0px" fill-rule="evenodd" clip-rule="evenodd" stroke-linejoin="round" stroke-miterlimit="1.41421"><g transform="matrix(1,0,0,1,-3.77995,3.22414)"><path d="M21.858,17.672C22.123,17.677 22.387,17.697 22.649,17.737C23.203,17.822 23.744,17.989 24.249,18.233C24.865,18.53 25.426,18.939 25.898,19.434C26.276,19.83 26.596,20.28 26.845,20.767C27.036,21.139 27.185,21.531 27.289,21.935C27.633,23.271 27.475,24.714 26.845,25.942C26.575,26.469 26.222,26.953 25.803,27.372C25.286,27.889 24.67,28.305 23.997,28.59C23.299,28.886 22.543,29.038 21.785,29.038C21.027,29.038 20.271,28.886 19.573,28.59C18.9,28.305 18.284,27.889 17.767,27.372C17.348,26.953 16.995,26.469 16.725,25.942C16.095,24.714 15.937,23.271 16.281,21.935C16.385,21.531 16.534,21.139 16.725,20.767C16.974,20.28 17.294,19.83 17.672,19.434C18.144,18.939 18.705,18.53 19.321,18.233C19.826,17.989 20.367,17.822 20.921,17.737C21.159,17.7 21.398,17.681 21.639,17.673C21.712,17.672 21.785,17.671 21.858,17.672ZM21.738,19.755C21.215,19.765 20.698,19.882 20.226,20.109C19.861,20.285 19.527,20.523 19.24,20.81C18.975,21.076 18.75,21.383 18.579,21.717C18.181,22.495 18.081,23.409 18.299,24.254C18.364,24.509 18.459,24.757 18.579,24.992C18.75,25.326 18.975,25.633 19.24,25.899C19.568,26.227 19.958,26.491 20.385,26.671C20.813,26.852 21.274,26.948 21.738,26.954C22.204,26.96 22.67,26.876 23.104,26.705C23.508,26.545 23.883,26.311 24.204,26.019C24.482,25.766 24.721,25.47 24.908,25.145C25.054,24.891 25.168,24.621 25.248,24.34C25.479,23.528 25.415,22.643 25.067,21.875C24.912,21.532 24.702,21.214 24.449,20.935C24.157,20.614 23.808,20.346 23.422,20.148C22.971,19.917 22.476,19.788 21.971,19.76C21.893,19.756 21.816,19.755 21.738,19.755Z" style="" fill="black" fill-rule="nonzero"/></g><g transform="matrix(1,0,0,1,-3.77995,18.64)"><path d="M21.858,17.672C22.123,17.677 22.387,17.697 22.649,17.737C23.203,17.822 23.744,17.989 24.249,18.233C24.865,18.53 25.426,18.939 25.898,19.434C26.276,19.83 26.596,20.28 26.845,20.767C27.475,21.995 27.633,23.438 27.289,24.774C27.185,25.178 27.036,25.57 26.845,25.942C26.575,26.469 26.222,26.953 25.803,27.372C25.286,27.889 24.67,28.305 23.997,28.59C23.299,28.886 22.543,29.038 21.785,29.038C21.027,29.038 20.271,28.886 19.573,28.59C18.9,28.305 18.284,27.889 17.767,27.372C17.348,26.953 16.995,26.469 16.725,25.942C16.534,25.57 16.385,25.178 16.281,24.774C15.937,23.438 16.095,21.995 16.725,20.767C16.974,20.28 17.294,19.83 17.672,19.434C18.144,18.939 18.705,18.53 19.321,18.233C19.826,17.989 20.367,17.822 20.921,17.737C21.159,17.7 21.398,17.681 21.639,17.673C21.712,17.672 21.785,17.671 21.858,17.672ZM21.738,19.755C21.215,19.765 20.698,19.882 20.226,20.109C19.861,20.285 19.527,20.523 19.24,20.81C18.975,21.076 18.75,21.383 18.579,21.717C18.181,22.495 18.081,23.409 18.299,24.254C18.364,24.509 18.459,24.757 18.579,24.992C18.75,25.326 18.975,25.633 19.24,25.899C19.568,26.227 19.958,26.491 20.385,26.671C20.813,26.852 21.274,26.948 21.738,26.954C22.204,26.96 22.67,26.876 23.104,26.705C23.508,26.545 23.883,26.311 24.204,26.019C24.504,25.746 24.757,25.424 24.951,25.069C25.09,24.812 25.198,24.537 25.271,24.254C25.474,23.466 25.402,22.616 25.067,21.875C24.912,21.532 24.702,21.214 24.449,20.935C24.157,20.614 23.808,20.346 23.422,20.148C22.971,19.917 22.476,19.788 21.971,19.76C21.893,19.756 21.816,19.755 21.738,19.755Z" style="" fill="black" fill-rule="nonzero"/></g><g transform="matrix(1,0,0,1,-3.77995,34.0669)"><path d="M21.858,17.672C22.123,17.677 22.387,17.697 22.649,17.737C23.203,17.822 23.744,17.989 24.249,18.233C24.865,18.53 25.426,18.939 25.898,19.434C26.276,19.83 26.596,20.28 26.845,20.767C27.475,21.995 27.633,23.438 27.289,24.774C27.185,25.178 27.036,25.57 26.845,25.942C26.575,26.469 26.222,26.953 25.803,27.372C25.286,27.889 24.67,28.305 23.997,28.59C23.299,28.886 22.543,29.038 21.785,29.038C21.027,29.038 20.271,28.886 19.573,28.59C18.9,28.305 18.284,27.889 17.767,27.372C17.348,26.953 16.995,26.469 16.725,25.942C16.534,25.57 16.385,25.178 16.281,24.774C15.937,23.438 16.095,21.995 16.725,20.767C16.974,20.28 17.294,19.83 17.672,19.434C18.144,18.939 18.705,18.53 19.321,18.233C19.826,17.989 20.367,17.822 20.921,17.737C21.159,17.7 21.398,17.681 21.639,17.673C21.712,17.672 21.785,17.671 21.858,17.672ZM21.738,19.755C21.215,19.765 20.698,19.882 20.226,20.109C19.861,20.285 19.527,20.523 19.24,20.81C18.975,21.076 18.75,21.383 18.579,21.717C18.181,22.495 18.081,23.409 18.299,24.254C18.364,24.509 18.459,24.757 18.579,24.992C18.75,25.326 18.975,25.633 19.24,25.899C19.547,26.206 19.909,26.457 20.305,26.636C20.74,26.833 21.214,26.941 21.692,26.953C22.173,26.965 22.656,26.881 23.104,26.705C23.508,26.545 23.883,26.311 24.204,26.019C24.482,25.766 24.721,25.47 24.908,25.145C25.054,24.891 25.168,24.621 25.248,24.34C25.479,23.528 25.415,22.643 25.067,21.875C24.912,21.532 24.702,21.214 24.449,20.935C24.157,20.614 23.808,20.346 23.422,20.148C22.971,19.917 22.476,19.788 21.971,19.76C21.893,19.756 21.816,19.755 21.738,19.755Z" style="" fill="black" fill-rule="nonzero"/></g><g transform="matrix(0.814186,0,0,1,14.6847,-17.0725)"><path d="M66.778,40.959C67.219,40.973 67.651,41.048 68.055,41.197C68.96,41.53 69.648,42.195 69.896,42.979C69.98,43.243 70.013,43.517 69.996,43.789C69.978,44.08 69.902,44.368 69.77,44.639C69.624,44.941 69.409,45.221 69.141,45.462C68.855,45.717 68.51,45.928 68.127,46.078C67.704,46.244 67.246,46.329 66.778,46.343C50.882,46.507 34.983,46.507 19.087,46.343C18.618,46.329 18.161,46.244 17.737,46.078C17.355,45.928 17.009,45.717 16.724,45.462C16.455,45.221 16.241,44.941 16.094,44.639C15.963,44.368 15.887,44.08 15.868,43.789C15.851,43.517 15.885,43.243 15.968,42.979C16.216,42.195 16.905,41.53 17.81,41.197C18.214,41.048 18.645,40.973 19.087,40.959C34.983,40.795 50.882,40.795 66.778,40.959ZM19.18,43.042C19.064,43.043 18.953,43.06 18.848,43.101C18.761,43.136 18.683,43.184 18.618,43.242C18.557,43.296 18.508,43.36 18.475,43.428C18.445,43.489 18.428,43.554 18.424,43.619C18.408,43.873 18.593,44.114 18.881,44.213C18.967,44.243 19.059,44.257 19.152,44.26C35.017,44.424 50.917,45.077 66.752,44.259C66.844,44.252 66.933,44.234 67.016,44.201C67.286,44.095 67.456,43.863 67.44,43.619C67.436,43.554 67.419,43.489 67.39,43.428C67.357,43.36 67.308,43.296 67.247,43.242C67.182,43.184 67.103,43.136 67.016,43.101C66.921,43.064 66.818,43.045 66.713,43.042C50.87,42.879 35.024,43.042 19.18,43.042Z" style="" fill="black" fill-rule="nonzero"/></g><g transform="matrix(0.814186,0,0,1,14.6847,-1.65666)"><path d="M66.778,40.959C67.219,40.973 67.651,41.048 68.055,41.197C68.96,41.53 69.648,42.195 69.896,42.979C69.98,43.243 70.013,43.517 69.996,43.789C69.978,44.08 69.902,44.368 69.77,44.639C69.624,44.941 69.409,45.221 69.141,45.462C68.855,45.717 68.51,45.928 68.127,46.078C67.704,46.244 67.246,46.329 66.778,46.343C50.882,46.508 34.983,46.508 19.087,46.343C18.618,46.329 18.161,46.244 17.737,46.078C17.355,45.928 17.009,45.717 16.724,45.462C16.455,45.221 16.241,44.941 16.094,44.639C15.963,44.368 15.887,44.08 15.868,43.789C15.851,43.517 15.885,43.243 15.968,42.979C16.216,42.195 16.905,41.53 17.81,41.197C18.214,41.048 18.645,40.973 19.087,40.959C34.983,40.795 50.882,40.795 66.778,40.959ZM19.18,43.042C19.064,43.043 18.953,43.06 18.848,43.101C18.761,43.136 18.683,43.184 18.618,43.242C18.557,43.296 18.508,43.36 18.475,43.428C18.445,43.489 18.428,43.554 18.424,43.619C18.408,43.873 18.593,44.114 18.881,44.213C18.967,44.243 19.059,44.257 19.152,44.26C35.017,44.425 50.917,45.076 66.752,44.259C66.844,44.252 66.933,44.234 67.016,44.201C67.286,44.095 67.456,43.863 67.44,43.619C67.436,43.554 67.419,43.489 67.39,43.428C67.357,43.36 67.308,43.296 67.247,43.242C67.182,43.184 67.103,43.136 67.016,43.101C66.921,43.064 66.818,43.045 66.713,43.042C50.87,42.878 35.024,43.042 19.18,43.042Z" style="" fill="black" fill-rule="nonzero"/></g><g transform="matrix(0.814186,0,0,1,14.6847,13.7702)"><path d="M66.778,40.959C67.219,40.973 67.651,41.048 68.055,41.197C68.96,41.53 69.648,42.195 69.896,42.979C69.98,43.243 70.013,43.517 69.996,43.789C69.978,44.08 69.902,44.368 69.77,44.639C69.624,44.941 69.409,45.221 69.141,45.462C68.855,45.717 68.51,45.928 68.127,46.078C67.704,46.244 67.246,46.329 66.778,46.343C50.882,46.506 34.983,46.506 19.087,46.343C18.618,46.329 18.161,46.244 17.737,46.078C17.355,45.928 17.009,45.717 16.724,45.462C16.455,45.221 16.241,44.941 16.094,44.639C15.963,44.368 15.887,44.08 15.868,43.789C15.851,43.517 15.885,43.243 15.968,42.979C16.216,42.195 16.905,41.53 17.81,41.197C18.214,41.048 18.645,40.973 19.087,40.959C34.983,40.796 50.882,40.796 66.778,40.959ZM19.18,43.042C19.064,43.043 18.953,43.06 18.848,43.101C18.761,43.136 18.683,43.184 18.618,43.242C18.557,43.296 18.508,43.36 18.475,43.428C18.445,43.489 18.428,43.554 18.424,43.619C18.408,43.873 18.593,44.114 18.881,44.213C18.967,44.243 19.059,44.257 19.152,44.26C35.017,44.423 50.917,45.077 66.752,44.259C66.844,44.252 66.933,44.234 67.016,44.201C67.286,44.095 67.456,43.863 67.44,43.619C67.436,43.554 67.419,43.489 67.39,43.428C67.357,43.36 67.308,43.296 67.247,43.242C67.182,43.184 67.103,43.136 67.016,43.101C66.921,43.064 66.818,43.045 66.713,43.042C50.87,42.879 35.024,43.042 19.18,43.042Z" style="" fill="black" fill-rule="nonzero"/></g><!--<text x="0" y="99" fill="#000000" font-size="5px" font-weight="bold" font-family="'Helvetica Neue', Helvetica, Arial-Unicode, Arial, Sans-serif">Created by TS Graphics</text><text x="0" y="104" fill="#000000" font-size="5px" font-weight="bold" font-family="'Helvetica Neue', Helvetica, Arial-Unicode, Arial, Sans-serif">from the Noun Project</text>--></svg>