<svg xmlns="http://www.w3.org/2000/svg" xmlns:xlink="http://www.w3.org/1999/xlink" version="1.1" x="0px" y="0px" viewBox="0 0 100 125" enable-background="new 0 0 100 100" xml:space="preserve"><g><path d="M87.439,47.888c4.489,0.645,8.648-2.481,9.288-6.967c0.645-4.47-2.48-8.631-6.983-9.273   c-4.491-0.625-8.641,2.498-9.284,6.971C79.835,43.102,82.957,47.265,87.439,47.888z"/><polygon points="13.816,76.395 1.014,62.736 1.014,76.395  "/><path d="M76.827,74.667c1.052-0.74,1.745-1.96,1.745-3.343c0,0,0.006-28.045,0.005-28.059c0.043-1.775-0.277-3.847-1.338-6.108   c-0.989-2.12-3.198-5.653-10.302-9.203c-9.402-4.702-18.282-2.721-20.349-2.176c-2.749,0.645-7.689,3.498-7.689,8.985l-0.032,21.18   L16.355,68.734c-1.969,1.118-2.657,3.62-1.539,5.587c0.755,1.329,2.14,2.074,3.567,2.074c0.686,0,1.381-0.173,2.019-0.536   l25.754-14.633c1.125-0.64,1.881-1.771,2.042-3.054l1.323-10.58l5.127,5.891L39.464,68.83c-0.061,0.061-2.548,2.622-0.197,5.55   c0.086,0.106,0.176,0.192,0.265,0.285h-9.451v2.096h69.071v-2.096L76.827,74.667z M45.228,74.665l19.034-16.33   c1.454-1.293,2.021-2.957,1.002-4.935l-6.137-12.331c0.574,0.147,1.157,0.32,1.742,0.544c4.289,1.646,8.407,4.833,9.505,5.83   l0.016,0.005l-0.001,23.875c0,1.383,0.69,2.603,1.742,3.343L45.228,74.665z"/></g><text x="0" y="115" fill="#000000" font-size="5px" font-weight="bold" font-family="'Helvetica Neue', Helvetica, Arial-Unicode, Arial, Sans-serif">Created by Luis Prado</text><text x="0" y="120" fill="#000000" font-size="5px" font-weight="bold" font-family="'Helvetica Neue', Helvetica, Arial-Unicode, Arial, Sans-serif">from the Noun Project</text></svg>