<svg xmlns="http://www.w3.org/2000/svg" xmlns:xlink="http://www.w3.org/1999/xlink" version="1.1" x="0px" y="0px" viewBox="0 0 100 125" enable-background="new 0 0 100 100" xml:space="preserve"><path d="M78.7,15.8H24.3c-6.3,0-11.4,5.1-11.4,11.4v40.4c0,6.3,5.1,11.4,11.4,11.4h42.7l10.4,7.2c0.3,0.2,0.7,0.3,1.1,0.3  c0.3,0,0.6-0.1,0.9-0.2c0.6-0.3,1.1-1,1.1-1.7l0.2-5.7c5.4-0.9,9.5-5.6,9.5-11.3V27.2C90.1,20.9,85,15.8,78.7,15.8z M86.1,67.6  c0,4.1-3.3,7.5-7.5,7.5c-1.1,0-1.9,0.8-2,1.9l-0.1,3.9l-7.9-5.4c-0.3-0.2-0.7-0.3-1.1-0.3H24.3c-4.1,0-7.5-3.3-7.5-7.5V27.2  c0-4.1,3.3-7.5,7.5-7.5h54.4c4.1,0,7.5,3.3,7.5,7.5V67.6z"/><circle cx="31.8" cy="48.4" r="4"/><circle cx="51.9" cy="48.4" r="4"/><circle cx="72" cy="48.4" r="4"/><!--<text x="0" y="115" fill="#000000" font-size="5px" font-weight="bold" font-family="'Helvetica Neue', Helvetica, Arial-Unicode, Arial, Sans-serif">Created by Carla Porciuncula</text><text x="0" y="120" fill="#000000" font-size="5px" font-weight="bold" font-family="'Helvetica Neue', Helvetica, Arial-Unicode, Arial, Sans-serif">from the Noun Project</text>--></svg>