<svg xmlns="http://www.w3.org/2000/svg" xmlns:xlink="http://www.w3.org/1999/xlink" version="1.1" preserveAspectRatio="none" x="0px" y="0px" viewBox="0 0 100 125"><defs><g id="a"><path fill="#000000" stroke="none" d=" M 83.05 47.85 Q 82.246484375 44.1634765625 81.8 42.6 81.399609375 41.0388671875 79.8 37.1 78.20703125 33.1533203125 76.1 30.25 74.0376953125 27.4041015625 66 22.4 58.0044921875 17.397265625 52.35 17.4 46.7 17.4 40.4 20.3 34.1 23.15 30.45 26.4 26.753515625 29.603515625 23.45 34.35 20.189453125 39.139453125 19.05 43.4 17.960546875 47.710546875 18.05 52.4 18.144140625 57.148046875 19.1 60.4 20.0599609375 63.6486328125 22.2 67.15 24.38203125 70.69921875 26.1 73.05 27.8716796875 75.4560546875 32.05 78.95 36.2314453125 82.4876953125 48.35 83.45 53.5 83.3 58.85 82.25 63.8 81.15 67.45 79.45 70.9005859375 77.7939453125 73.9 74.85 76.9380859375 71.9142578125 78 70.95 79.10625 70.0376953125 81.5 63.9 83.905078125 57.7564453125 83.9 54.65 83.8966796875 51.5919921875 83.05 47.85 M 55.5 20.1 Q 56.1 20.15 60.1 21.7 65.15 23.65 68.25 25.8 73.45 29.35 76.95 35 78.15 37 80 43.25 82 50.05 82 53.35 82.001953125 57.195703125 80.15 62.35 78.2939453125 67.5634765625 77.05 69.15 75.855859375 70.786328125 72.2 73.7 68.5978515625 76.6541015625 65.75 78.05 62.85 79.45 57.9 80.4 52.9 81.3 51.35 81.2 L 48 81.2 Q 40.15 80.65 37.35 79.5 34.55 78.35 31.05 75.1 27.55 71.85 24.8 67.35 22 62.8 21.1 60.55 19.8986328125 57.5525390625 19.65 53.2 19.4037109375 48.8423828125 20.5 44.35 21.59609375 39.9076171875 24.75 35.75 27.901171875 31.5974609375 32.65 27.35 34.5 25.6494140625 39.75 23.1 45.0453125 20.59609375 46.95 20.35 48.864453125 20.116015625 49.65 19.95 50.433984375 19.8306640625 52.3 19.7 L 55.5 20.1 M 35.5 60.4 Q 36.00546875 60.93828125 36.55 61.1 37.1486328125 61.3052734375 37.3 61.35 37.4482421875 61.45 37.5 61.45 L 49.75 61.45 Q 49.7302734375 61.5669921875 49.7 61.7 49.65 61.9 49.65 63.15 49.65 63.2 50.55 66.85 52.1 70.45 55.35 70.45 58.7 70.45 60.8 66.8 62.25 64.2 62.25 62.5 62.25 61.8970703125 62.1 61.45 L 66.9 61.45 Q 67.5146484375 61.2912109375 68.4 60.5 69.288671875 59.7556640625 69.25 58.95 69.2544921875 58.2 68.6 58.4 67.9462890625 58.590234375 66.9 59 65.8548828125 59.412890625 65.3 59.35 L 38.4 59.35 Q 36.875 59.2125 35.85 58.8 34.88125 58.390625 34.95 59.15 35.000390625 59.9076171875 35.5 60.4 M 52 61.85 L 51.95 61.45 54.25 61.45 Q 54.1 61.8 54.4 62.85 L 54.4 63.3 Q 54.55 63.7 55.25 64.35 56.3 65.3 56.3 62.95 56.3 61.55 56.25 61.45 L 59.8 61.45 Q 59.8 61.85 59.75 61.75 59.75 63.5 58.8 65.25 57.5 67.6 55.1 67.95 53.45 68.2 52.55 66.3 51.95 64.95 51.95 63.3 L 52 61.85 M 58.6 37.05 Q 55.3 36.8 55.3 41.35 55.3 41.45 55.75 43.25 56.5 45.05 58.2 45.05 61.25 45.05 61.9 40.95 61.9 37.25 58.6 37.05 M 46.2 40.95 Q 46.2 37.25 42.9 37.05 39.6 36.8 39.6 41.35 39.6 41.45 40.05 43.25 40.8 45.05 42.5 45.05 45.55 45.05 46.2 40.95 Z"/></g></defs><g transform="matrix( 1, 0, 0, 1, 0,0) "><use xlink:href="#a"/></g><text x="0" y="115" fill="#000000" font-size="5px" font-weight="bold" font-family="'Helvetica Neue', Helvetica, Arial-Unicode, Arial, Sans-serif">Created by Tatiana</text><text x="0" y="120" fill="#000000" font-size="5px" font-weight="bold" font-family="'Helvetica Neue', Helvetica, Arial-Unicode, Arial, Sans-serif">from the Noun Project</text></svg>