<svg xmlns="http://www.w3.org/2000/svg" xmlns:xlink="http://www.w3.org/1999/xlink" version="1.1" x="0px" y="0px" viewBox="0 0 100 125" style="enable-background:new 0 0 100 100;" xml:space="preserve"><path d="M85.5,50.8c3.1-1.8,5.2-5.2,5.2-9.1c0-5.8-4.7-10.6-10.6-10.6c-3.5,0-6.6,1.7-8.5,4.3c-0.4-0.2-0.7-0.3-1.1-0.4  c3.1-1.8,5.2-5.2,5.2-9.1c0-5.8-4.7-10.6-10.6-10.6S54.5,20.1,54.5,26c0,3.9,2.1,7.2,5.2,9.1c-2.8,1-5.3,2.7-7.1,5  c-0.8-0.2-1.6-0.3-2.5-0.3c-0.9,0-1.8,0.1-2.6,0.3c-1.9-2.3-4.3-4-7.2-5c3.1-1.8,5.2-5.2,5.2-9.1c0-5.8-4.7-10.6-10.6-10.6  S24.4,20.1,24.4,26c0,3.9,2.1,7.2,5.2,9.1c-0.4,0.1-0.8,0.3-1.1,0.4c-1.9-2.6-5-4.3-8.5-4.3c-5.8,0-10.6,4.7-10.6,10.6  c0,3.9,2.1,7.2,5.2,9.1C8.2,53.1,3.7,59.1,3.7,66.2v5.6l0.6,0.4c3.6,2.4,9.5,3.9,15.7,3.9c5.3,0,10.4-1.1,14-2.9  c0,0.5-0.1,1-0.1,1.5v5.6l0.6,0.4c3.6,2.4,9.5,3.9,15.7,3.9s12.1-1.5,15.7-3.9l0.6-0.4v-5.6c0-0.5,0-1-0.1-1.4  c3.6,1.8,8.6,2.8,13.8,2.8c6.2,0,12.1-1.5,15.7-3.9l0.6-0.4v-5.6C96.3,59.1,91.8,53.1,85.5,50.8z M93.8,70.4  c-3.2,2-8.3,3.1-13.7,3.1c-5.4,0-10.5-1.2-13.7-3.1v-4.3c0-7.6,6.2-13.7,13.7-13.7c7.6,0,13.7,6.2,13.7,13.7V70.4z M33.7,66.2v4.3  c-3.2,2-8.3,3.1-13.7,3.1c-5.4,0-10.5-1.2-13.7-3.1v-4.3c0-7.6,6.2-13.7,13.7-13.7S33.7,58.6,33.7,66.2z M19.9,33.7  c4.4,0,8.1,3.6,8.1,8.1s-3.6,8.1-8.1,8.1s-8.1-3.6-8.1-8.1S15.5,33.7,19.9,33.7z M35.9,63.4c-1-5.8-5.1-10.6-10.6-12.5  c3.1-1.8,5.2-5.2,5.2-9.1c0-1.4-0.3-2.8-0.8-4.1c1.6-0.7,3.4-1,5.2-1c4,0,7.5,1.7,10,4.4c-3.3,1.8-5.5,5.3-5.5,9.2  c0,3.9,2.1,7.2,5.2,9.1c-2.8,1-5.2,2.7-7,4.9c-0.5,0.6-1,1.3-1.5,2.1v-0.1C36.2,65.2,36.1,64.3,35.9,63.4z M34.9,17.9  c4.4,0,8.1,3.6,8.1,8.1c0,4.4-3.6,8.1-8.1,8.1s-8.1-3.6-8.1-8.1C26.9,21.5,30.5,17.9,34.9,17.9z M58.1,50.3c0,4.4-3.6,8.1-8.1,8.1  S42,54.7,42,50.3s3.6-8.1,8.1-8.1S58.1,45.8,58.1,50.3z M36.3,74.7c0-7.6,6.2-13.7,13.7-13.7s13.7,6.2,13.7,13.7V79  c-3.2,2-8.3,3.1-13.7,3.1S39.6,80.9,36.3,79V74.7z M62.2,63.9c-1.8-2-4.1-3.6-6.7-4.5c3.1-1.8,5.2-5.2,5.2-9.1c0-4-2.3-7.5-5.6-9.3  c2.5-2.7,6.1-4.3,10-4.3c1.9,0,3.6,0.4,5.2,1c-0.5,1.3-0.8,2.6-0.8,4.1c0,3.9,2.1,7.2,5.2,9.1c-5.3,1.9-9.4,6.5-10.5,12.1  c-0.2,1-0.3,2-0.3,3.1C63.3,65.3,62.8,64.6,62.2,63.9z M65.1,17.9c4.4,0,8.1,3.6,8.1,8.1c0,4.4-3.6,8.1-8.1,8.1S57,30.4,57,26  C57,21.5,60.6,17.9,65.1,17.9z M80.1,33.7c4.4,0,8.1,3.6,8.1,8.1s-3.6,8.1-8.1,8.1S72,46.2,72,41.8S75.6,33.7,80.1,33.7z"/><!--<text x="0" y="115" fill="#000000" font-size="5px" font-weight="bold" font-family="'Helvetica Neue', Helvetica, Arial-Unicode, Arial, Sans-serif">Created by mikicon</text><text x="0" y="120" fill="#000000" font-size="5px" font-weight="bold" font-family="'Helvetica Neue', Helvetica, Arial-Unicode, Arial, Sans-serif">from the Noun Project</text>--></svg>