<svg xmlns="http://www.w3.org/2000/svg" viewBox="0 0 64 80" x="0px" y="0px"><title>admin, user, edit, config</title><g><path d="M54.9,49.608l.007-1.823c.592-.095,1.084-1.451,1.214-2.066l-1.891-3.308c-.6-.2-2.015-.464-2.4,0l-1.574-.918c.214-.559-.715-1.664-1.182-2.084l-3.811-.016c-.471.416-1.409,1.512-1.2,2.074l-1.582.9c-.378-.464-1.8-.212-2.4-.018L38.17,45.643c.125.616.6,1.976,1.2,2.076l-.008,1.822c-.592.1-1.084,1.452-1.214,2.067l1.892,3.308c.6.2,2.014.464,2.4,0l1.574.917c-.213.56.715,1.664,1.183,2.084L49,57.937c.471-.416,1.409-1.513,1.2-2.074l1.582-.905c.378.465,1.8.213,2.4.018l1.92-3.292C55.973,51.068,55.492,49.708,54.9,49.608Zm-5.7.259a2.389,2.389,0,1,1-.861-3.268A2.389,2.389,0,0,1,49.2,49.867ZM28.255,30.655a12.3,12.3,0,1,0-12.3-12.3A12.31,12.31,0,0,0,28.255,30.655Zm0-21.592a9.3,9.3,0,1,1-9.3,9.3A9.307,9.307,0,0,1,28.255,9.063ZM38.282,38.309a18.46,18.46,0,0,0-10-2.288c-5.416-.116-9.652,1.335-12.618,4.275-4.8,4.755-4.79,11.973-4.789,12.047A1.5,1.5,0,0,1,9.4,53.857H9.377a1.5,1.5,0,0,1-1.5-1.478c0-.345-.046-8.524,5.655-14.193,3.565-3.545,8.522-5.3,14.752-5.165a21.313,21.313,0,0,1,11.537,2.714,1.5,1.5,0,1,1-1.539,2.574Z"/></g><text x="0" y="79" fill="#000000" font-size="5px" font-weight="bold" font-family="'Helvetica Neue', Helvetica, Arial-Unicode, Arial, Sans-serif">Created by The Icon Z</text><text x="0" y="84" fill="#000000" font-size="5px" font-weight="bold" font-family="'Helvetica Neue', Helvetica, Arial-Unicode, Arial, Sans-serif">from the Noun Project</text></svg>