<svg xmlns="http://www.w3.org/2000/svg" xmlns:xlink="http://www.w3.org/1999/xlink" version="1.1" x="0px" y="0px" viewBox="0 0 128 160" style="enable-background:new 0 0 128 128;" xml:space="preserve"><g><g><path d="M106.897,115.98H20.093c-1.104,0-2-0.896-2-2v-10.019c0-1.104,0.896-2,2-2s2,0.896,2,2v8.019h82.804V16.019h-8.094    c-1.104,0-2-0.896-2-2s0.896-2,2-2h10.094c1.104,0,2,0.896,2,2v99.961C108.897,115.085,108.002,115.98,106.897,115.98z"/><path d="M118,126H31.196c-1.104,0-2-0.896-2-2v-10.02c0-1.104,0.896-2,2-2s2,0.896,2,2V122H116V26.039h-9.103    c-1.104,0-2-0.896-2-2s0.896-2,2-2H118c1.104,0,2,0.896,2,2V124C120,125.104,119.104,126,118,126z"/><g><path d="M96.804,105.961H10c-1.104,0-2-0.896-2-2V4c0-1.104,0.896-2,2-2h86.804c1.104,0,2,0.896,2,2v99.961     C98.804,105.066,97.908,105.961,96.804,105.961z M12,101.961h82.804V6H12V101.961z"/><g><g><g><path d="M37.562,60.364c-11.461,0-20.786-9.037-20.786-20.145s9.324-20.145,20.786-20.145        c11.461,0,20.785,9.037,20.785,20.145S49.023,60.364,37.562,60.364z M37.562,24.074c-9.256,0-16.786,7.243-16.786,16.145        s7.53,16.145,16.786,16.145c9.255,0,16.785-7.243,16.785-16.145S46.818,24.074,37.562,24.074z"/><path d="M37.562,42.219c-0.263,0-0.529-0.052-0.781-0.159c-0.739-0.313-1.219-1.038-1.219-1.841V22.074c0-1.104,0.896-2,2-2        c1.104,0,2,0.896,2,2v13.433l9.894-9.556c0.793-0.768,2.06-0.746,2.828,0.049c0.768,0.794,0.746,2.061-0.049,2.828        l-13.283,12.83C38.572,42.025,38.071,42.219,37.562,42.219z"/><path d="M50.846,55.05c-0.5,0-1.001-0.187-1.39-0.562L36.173,41.658c-0.794-0.768-0.816-2.034-0.049-2.828        c0.768-0.795,2.034-0.817,2.828-0.049l13.283,12.831c0.794,0.768,0.816,2.034,0.049,2.828        C51.892,54.846,51.369,55.05,50.846,55.05z"/></g><g><g><path d="M88.027,66.531H68.368c-1.104,0-2-0.896-2-2V46.149c0-1.104,0.896-2,2-2h19.659c1.104,0,2,0.896,2,2v18.382         C90.027,65.636,89.131,66.531,88.027,66.531z M70.368,62.531h15.659V48.149H70.368V62.531z"/><path d="M76.792,59.971c-0.476,0-0.951-0.169-1.33-0.506l-2.954-2.63c-0.825-0.735-0.898-1.999-0.164-2.824         c0.736-0.825,2-0.897,2.824-0.164l1.624,1.446l4.577-4.077c0.824-0.734,2.087-0.662,2.824,0.164         c0.734,0.825,0.662,2.089-0.164,2.824l-5.907,5.261C77.743,59.802,77.267,59.971,76.792,59.971z"/></g><g><path d="M88.027,36.29H68.368c-1.104,0-2-0.896-2-2V15.908c0-1.104,0.896-2,2-2h19.659c1.104,0,2,0.896,2,2V34.29         C90.027,35.394,89.131,36.29,88.027,36.29z M70.368,32.29h15.659V17.908H70.368V32.29z"/><path d="M76.792,29.729c-0.476,0-0.951-0.169-1.33-0.506l-2.954-2.63c-0.825-0.735-0.898-1.999-0.164-2.824         c0.736-0.825,2-0.897,2.824-0.164l1.624,1.446l4.577-4.077c0.824-0.735,2.087-0.662,2.824,0.164         c0.734,0.825,0.662,2.089-0.164,2.824l-5.907,5.261C77.743,29.56,77.267,29.729,76.792,29.729z"/></g></g></g><g><path d="M88.027,94.054h-69.25c-1.104,0-2-0.896-2-2s0.896-2,2-2h69.25c1.104,0,2,0.896,2,2S89.131,94.054,88.027,94.054z"/><path d="M88.027,80.949h-69.25c-1.104,0-2-0.896-2-2s0.896-2,2-2h69.25c1.104,0,2,0.896,2,2S89.131,80.949,88.027,80.949z"/></g></g></g></g></g><!--<text x="0" y="143" fill="#000000" font-size="5px" font-weight="bold" font-family="'Helvetica Neue', Helvetica, Arial-Unicode, Arial, Sans-serif">Created by QualityIcons</text><text x="0" y="148" fill="#000000" font-size="5px" font-weight="bold" font-family="'Helvetica Neue', Helvetica, Arial-Unicode, Arial, Sans-serif">from the Noun Project</text>--></svg>